<?xml version="1.0" ?><!DOCTYPE svg  PUBLIC '-//W3C//DTD SVG 1.1//EN'  'http://www.w3.org/Graphics/SVG/1.1/DTD/svg11.dtd'><svg height="100%" style="fill-rule:evenodd;clip-rule:evenodd;stroke-linejoin:round;stroke-miterlimit:2;" version="1.1" viewBox="0 0 128 128" width="100%" xml:space="preserve" xmlns="http://www.w3.org/2000/svg" xmlns:serif="http://www.serif.com/" xmlns:xlink="http://www.w3.org/1999/xlink"><g id="Icon"/><path d="M110,46c-0,-3.314 -2.686,-6 -6,-6l-88,-0c-3.314,0 -6,2.686 -6,6l0,26c0,3.314 2.686,6 6,6l88,0c3.314,-0 6,-2.686 6,-6l-0,-26Z" style="fill:#424243;"/><path d="M108,55.126l-0,-11.126c-0,-1.144 -0.32,-2.214 -0.876,-3.124c1.725,1.054 2.876,2.955 2.876,5.124l-0,26c-0,3.314 -2.686,6 -6,6l-88,0c-2.169,-0 -4.07,-1.151 -5.124,-2.876c0.91,0.556 1.98,0.876 3.124,0.876l1,0l0,-6c-0,-1.061 0.421,-2.078 1.172,-2.828c0.75,-0.751 1.767,-1.172 2.828,-1.172c14.412,0 64.588,0 79,-0c1.061,-0 2.105,0.421 2.855,1.172c0.345,0.345 0.948,1.746 1.145,2.182l-0.172,-0.182c-0.75,-0.751 -1.767,-1.172 -2.828,-1.172c-14.412,0 -63.588,0 -78,0c-1.061,-0 -2.078,0.421 -2.828,1.172c-0.751,0.75 -1.172,1.767 -1.172,2.828l0,4l85,0c3.314,-0 6,-2.686 6,-6l-0,-12.026c-1.877,0.664 -3.897,1.026 -6,1.026c-5.476,-0 -10.384,-2.45 -13.686,-6.314c3.145,2.689 7.227,4.314 11.686,4.314c2.873,-0 5.589,-0.674 8,-1.874Z" style="fill:#202020;"/><path d="M103,72c0,-1.061 -0.421,-2.078 -1.172,-2.828c-0.75,-0.751 -1.767,-1.172 -2.828,-1.172c-14.412,0 -63.588,0 -78,0c-1.061,-0 -2.078,0.421 -2.828,1.172c-0.751,0.75 -1.172,1.767 -1.172,2.828c0,2.784 0,6 0,6l86,0l0,-6Z" style="fill:#eeefef;"/><path d="M19,78l0,-4c-0,-1.061 0.421,-2.078 1.172,-2.828c0.75,-0.751 1.767,-1.172 2.828,-1.172c14.412,0 63.588,0 78,-0c0.573,-0 1.133,0.123 1.646,0.354c-0.197,-0.436 -0.473,-0.837 -0.818,-1.182c-0.75,-0.751 -1.767,-1.172 -2.828,-1.172c-14.412,0 -63.588,0 -78,0c-1.061,-0 -2.078,0.421 -2.828,1.172c-0.751,0.75 -1.172,1.767 -1.172,2.828c0,2.784 0,6 0,6l2,0Z" style="fill:#e0e1e0;"/><path d="M103,77c-0,-1.061 -0.421,-2.078 -1.172,-2.828c-0.75,-0.751 -1.767,-1.172 -2.828,-1.172c-14.412,-0 -63.588,-0 -78,-0c-1.061,-0 -2.078,0.421 -2.828,1.172c-0.751,0.75 -1.172,1.767 -1.172,2.828c0,0.588 0,1 0,1l86,0l0,-1Z" style="fill:#bdbdbd;"/><path d="M19.029,73.519c-0.311,0.177 -0.6,0.395 -0.857,0.653c-0.751,0.75 -1.172,1.767 -1.172,2.828l0,1l2,0l0,-4c-0,-0.161 0.01,-0.322 0.029,-0.481Z" style="fill:#767576;"/><path d="M72,56c-0,-0.53 -0.211,-1.039 -0.586,-1.414c-0.375,-0.375 -0.884,-0.586 -1.414,-0.586c-4.52,0 -15.48,0 -20,0c-0.53,-0 -1.039,0.211 -1.414,0.586c-0.375,0.375 -0.586,0.884 -0.586,1.414c0,1.222 0,2.778 0,4c0,0.53 0.211,1.039 0.586,1.414c0.375,0.375 0.884,0.586 1.414,0.586c4.52,0 15.48,0 20,0c0.53,0 1.039,-0.211 1.414,-0.586c0.375,-0.375 0.586,-0.884 0.586,-1.414c0,-1.222 0,-2.778 0,-4Z" style="fill:#fff;"/><path d="M70,54l0,4c-0,0.53 -0.211,1.039 -0.586,1.414c-0.375,0.375 -0.884,0.586 -1.414,0.586l-20,-0l0,0c0,0.53 0.211,1.039 0.586,1.414c0.375,0.375 0.884,0.586 1.414,0.586c4.52,0 15.48,0 20,0c0.53,0 1.039,-0.211 1.414,-0.586c0.375,-0.375 0.586,-0.884 0.586,-1.414c0,-1.222 0,-2.778 0,-4c-0,-0.53 -0.211,-1.039 -0.586,-1.414c-0.375,-0.375 -0.884,-0.586 -1.414,-0.586Z" style="fill:#eeefef;"/><path d="M18.5,48l-2,0c-0.828,-0 -1.5,-0.672 -1.5,-1.5c0,-0.828 0.672,-1.5 1.5,-1.5l2,0c0.828,-0 1.5,0.672 1.5,1.5c0,0.828 -0.672,1.5 -1.5,1.5Zm29,0l-22,0c-0.828,-0 -1.5,-0.672 -1.5,-1.5c0,-0.828 0.672,-1.5 1.5,-1.5l22,0c0.828,-0 1.5,0.672 1.5,1.5c0,0.828 -0.672,1.5 -1.5,1.5Z" style="fill:#fff;"/><path d="M18.936,45.064c0.615,0.187 1.064,0.76 1.064,1.436c0,0.828 -0.672,1.5 -1.5,1.5l-2,0c-0.676,-0 -1.249,-0.449 -1.436,-1.064c0.138,0.041 0.284,0.064 0.436,0.064l2,0c0.828,-0 1.5,-0.672 1.5,-1.5c-0,-0.152 -0.023,-0.298 -0.064,-0.436Zm29,0c0.615,0.187 1.064,0.76 1.064,1.436c0,0.828 -0.672,1.5 -1.5,1.5l-22,0c-0.676,-0 -1.249,-0.449 -1.436,-1.064c0.138,0.041 0.284,0.064 0.436,0.064l22,0c0.828,-0 1.5,-0.672 1.5,-1.5c-0,-0.152 -0.023,-0.298 -0.064,-0.436Z" style="fill:#eeefef;"/><path d="M26,82l-0,21c-0,1.656 -1.344,3 -3,3c-1.656,-0 -3,-1.344 -3,-3c-0,-0.552 -0.448,-1 -1,-1c-0.552,-0 -1,0.448 -1,1c-0,2.76 2.24,5 5,5c2.76,-0 5,-2.24 5,-5l-0,-21c0,-0.552 -0.448,-1 -1,-1c-0.552,-0 -1,0.448 -1,1Zm66,0l0,21c0,2.76 2.24,5 5,5c2.76,-0 5,-2.24 5,-5c0,-0.552 -0.448,-1 -1,-1c-0.552,-0 -1,0.448 -1,1c0,1.656 -1.344,3 -3,3c-1.656,-0 -3,-1.344 -3,-3c0,0 0,-21 0,-21c-0,-0.552 -0.448,-1 -1,-1c-0.552,0 -1,0.448 -1,1Zm-58,0l-0,18c-0,0.552 0.448,1 1,1c0.552,0 1,-0.448 1,-1l-0,-18c-0,-0.552 -0.448,-1 -1,-1c-0.552,0 -1,0.448 -1,1Zm50,0l0,18c-0,0.552 0.448,1 1,1c0.552,0 1,-0.448 1,-1l0,-18c-0,-0.552 -0.448,-1 -1,-1c-0.552,0 -1,0.448 -1,1Zm-8,0l0,12c-0,0.552 0.448,1 1,1c0.552,0 1,-0.448 1,-1l0,-12c-0,-0.552 -0.448,-1 -1,-1c-0.552,0 -1,0.448 -1,1Zm-34,-0l-0,12c0,0.552 0.448,1 1,1c0.552,-0 1,-0.448 1,-1l-0,-12c0,-0.552 -0.448,-1 -1,-1c-0.552,-0 -1,0.448 -1,1Z" style="fill:#bdbdbd;"/><path d="M27,81c-0,0 -0,21 -0,21c-0,2.76 -2.24,5 -5,5c-1.125,-0 -2.164,-0.372 -3,-1c0.913,1.214 2.366,2 4,2c2.76,-0 5,-2.24 5,-5l-0,-21c0,-0.552 -0.448,-1 -1,-1Zm74,21c0,2.76 -2.24,5 -5,5c-1.125,-0 -2.164,-0.372 -3,-1c0.913,1.214 2.366,2 4,2c2.76,-0 5,-2.24 5,-5c0,-0.552 -0.448,-1 -1,-1Zm-81.974,0l-0.026,-0c-0,1.084 0.576,2.034 1.439,2.561c-0.279,-0.454 -0.439,-0.989 -0.439,-1.561c-0,-0.543 -0.434,-0.986 -0.974,-1Zm73.974,-21l0,21c0,1.084 0.576,2.034 1.439,2.561c-0.279,-0.454 -0.439,-0.989 -0.439,-1.561c0,0 0,-21 0,-21c-0,-0.552 -0.448,-1 -1,-1Zm-58,0c-0,0 -0,18 -0,18c-0,0.552 -0.448,1 -1,1c-0,0.552 0.448,1 1,1c0.552,0 1,-0.448 1,-1l-0,-18c-0,-0.552 -0.448,-1 -1,-1Zm50,0l0,18c-0,0.552 -0.448,1 -1,1c-0,0.552 0.448,1 1,1c0.552,0 1,-0.448 1,-1l0,-18c-0,-0.552 -0.448,-1 -1,-1Zm-8,0l0,12c-0,0.552 -0.448,1 -1,1c-0,0.552 0.448,1 1,1c0.552,0 1,-0.448 1,-1l0,-12c-0,-0.552 -0.448,-1 -1,-1Zm-34,0c-0,0 -0,12 -0,12c0,0.552 -0.448,1 -1,1c0,0.552 0.448,1 1,1c0.552,-0 1,-0.448 1,-1l-0,-12c0,-0.552 -0.448,-1 -1,-1Z" style="fill:#767576;"/><path d="M59,85.382l-0.553,-0.276c-0.493,-0.247 -1.095,-0.047 -1.341,0.447c-0.247,0.493 -0.047,1.095 0.447,1.341l1.447,0.724l-0,2.508c-0.367,0.095 -0.713,0.24 -1.032,0.428l-1.774,-1.774l0.512,-1.535c0.175,-0.523 -0.109,-1.09 -0.632,-1.265c-0.524,-0.174 -1.091,0.109 -1.265,0.633l-0.196,0.586l-0.977,-0.977c-0.39,-0.39 -1.024,-0.39 -1.414,-0c-0.39,0.39 -0.39,1.024 -0,1.414l0.977,0.977l-0.586,0.196c-0.524,0.174 -0.807,0.741 -0.633,1.265c0.175,0.523 0.742,0.807 1.265,0.632l1.535,-0.512l1.774,1.774c-0.188,0.319 -0.333,0.665 -0.428,1.032l-2.508,0l-0.724,-1.447c-0.246,-0.494 -0.848,-0.694 -1.341,-0.447c-0.494,0.246 -0.694,0.848 -0.447,1.341l0.276,0.553l-1.382,0c-0.552,0 -1,0.448 -1,1c0,0.552 0.448,1 1,1l1.382,0l-0.276,0.553c-0.247,0.493 -0.047,1.095 0.447,1.341c0.493,0.247 1.095,0.047 1.341,-0.447l0.724,-1.447l2.508,0c0.095,0.367 0.24,0.713 0.428,1.032l-1.774,1.774l-1.535,-0.512c-0.523,-0.175 -1.09,0.109 -1.265,0.632c-0.174,0.524 0.109,1.091 0.633,1.265l0.586,0.196l-0.977,0.977c-0.39,0.39 -0.39,1.024 -0,1.414c0.39,0.39 1.024,0.39 1.414,0l0.977,-0.977l0.196,0.586c0.174,0.524 0.741,0.807 1.265,0.633c0.523,-0.175 0.807,-0.742 0.632,-1.265l-0.512,-1.535l1.774,-1.774c0.319,0.188 0.665,0.333 1.032,0.428l0,2.508l-1.447,0.724c-0.494,0.246 -0.694,0.848 -0.447,1.341c0.246,0.494 0.848,0.694 1.341,0.447l0.553,-0.276l0,1.382c0,0.552 0.448,1 1,1c0.552,-0 1,-0.448 1,-1l0,-1.382l0.553,0.276c0.493,0.247 1.095,0.047 1.341,-0.447c0.247,-0.493 0.047,-1.095 -0.447,-1.341l-1.447,-0.724l0,-2.508c0.367,-0.095 0.713,-0.24 1.032,-0.428l1.774,1.774l-0.512,1.535c-0.175,0.523 0.109,1.09 0.632,1.265c0.524,0.174 1.091,-0.109 1.265,-0.633l0.196,-0.586l0.977,0.977c0.39,0.39 1.024,0.39 1.414,0c0.39,-0.39 0.39,-1.024 0,-1.414l-0.977,-0.977l0.586,-0.196c0.524,-0.174 0.807,-0.741 0.633,-1.265c-0.175,-0.523 -0.742,-0.807 -1.265,-0.632l-1.535,0.512l-1.774,-1.774c0.188,-0.319 0.333,-0.665 0.428,-1.032l2.508,0l0.724,1.447c0.246,0.494 0.848,0.694 1.341,0.447c0.494,-0.246 0.694,-0.848 0.447,-1.341l-0.276,-0.553l1.382,0c0.552,0 1,-0.448 1,-1c0,-0.552 -0.448,-1 -1,-1l-1.382,0l0.276,-0.553c0.247,-0.493 0.047,-1.095 -0.447,-1.341c-0.493,-0.247 -1.095,-0.047 -1.341,0.447l-0.724,1.447l-2.508,0c-0.095,-0.367 -0.24,-0.713 -0.428,-1.032l1.774,-1.774l1.535,0.512c0.523,0.175 1.09,-0.109 1.265,-0.632c0.174,-0.524 -0.109,-1.091 -0.633,-1.265l-0.586,-0.196l0.977,-0.977c0.39,-0.39 0.39,-1.024 0,-1.414c-0.39,-0.39 -1.024,-0.39 -1.414,-0l-0.977,0.977l-0.196,-0.586c-0.174,-0.524 -0.741,-0.807 -1.265,-0.633c-0.523,0.175 -0.807,0.742 -0.632,1.265l0.512,1.535l-1.774,1.774c-0.319,-0.188 -0.665,-0.333 -1.032,-0.428l0,-2.508l1.447,-0.724c0.494,-0.246 0.694,-0.848 0.447,-1.341c-0.246,-0.494 -0.848,-0.694 -1.341,-0.447l-0.553,0.276l0,-1.382c0,-0.552 -0.448,-1 -1,-1c-0.552,-0 -1,0.448 -1,1l0,1.382Zm2.403,7.193c-0.361,-0.356 -0.857,-0.575 -1.403,-0.575c-0.546,0 -1.042,0.219 -1.403,0.575c-0.003,0.004 -0.007,0.007 -0.011,0.011c-0.004,0.004 -0.007,0.008 -0.011,0.011c-0.356,0.361 -0.575,0.857 -0.575,1.403c-0,0.546 0.219,1.042 0.575,1.403c0.004,0.003 0.007,0.007 0.011,0.011c0.004,0.004 0.008,0.007 0.011,0.011c0.361,0.356 0.857,0.575 1.403,0.575c0.546,0 1.042,-0.219 1.403,-0.575c0.003,-0.004 0.007,-0.007 0.011,-0.011c0.004,-0.004 0.007,-0.008 0.011,-0.011c0.356,-0.361 0.575,-0.857 0.575,-1.403c-0,-0.546 -0.219,-1.042 -0.575,-1.403c-0.004,-0.003 -0.007,-0.007 -0.011,-0.011c-0.004,-0.004 -0.008,-0.007 -0.011,-0.011Z" style="fill:#2898d4;"/><path d="M61,104l0,-1.382l0.553,0.276c0.493,0.247 1.095,0.047 1.341,-0.447c0.247,-0.493 0.047,-1.095 -0.447,-1.341l-0.455,-0.228c0.024,0.189 -0.006,0.386 -0.098,0.569c-0.246,0.494 -0.848,0.694 -1.341,0.447l-0.553,-0.276l0,1.382c0,0.552 -0.448,1 -1,1c0,0.552 0.448,1 1,1c0.552,-0 1,-0.448 1,-1Zm-4,-2c-0,0.151 0.034,0.303 0.106,0.447c0.246,0.494 0.848,0.694 1.341,0.447l0.553,-0.276c0,0 0,-1.382 0,-1.382l-1.553,0.658c-0.144,0.072 -0.296,0.106 -0.447,0.106Zm-0.806,-2.78l1.774,-1.774l0.032,0.018l0,-0.59c-0.367,-0.095 -0.713,-0.24 -1.032,-0.428l-1.774,1.774l0.512,1.535c0.175,0.523 -0.109,1.09 -0.632,1.265c-0.124,0.041 -0.249,0.057 -0.371,0.05l0.106,0.317c0.174,0.524 0.741,0.807 1.265,0.633c0.523,-0.175 0.807,-0.742 0.632,-1.265l-0.512,-1.535Zm8.997,2.167l0.196,-0.586l0.977,0.977c0.39,0.39 1.024,0.39 1.414,0c0.39,-0.39 0.39,-1.024 0,-1.414l-0.977,-0.977l0.586,-0.196c0.524,-0.174 0.807,-0.741 0.633,-1.265c-0.14,-0.418 -0.53,-0.683 -0.949,-0.684c0,0.419 -0.265,0.81 -0.684,0.949l-0.586,0.196l0.977,0.977c0.39,0.39 0.39,1.024 0,1.414c-0.39,0.39 -1.024,0.39 -1.414,0l-0.977,-0.977l-0.196,0.586c-0.139,0.419 -0.53,0.684 -0.949,0.684c0.001,0.419 0.266,0.809 0.684,0.949c0.524,0.174 1.091,-0.109 1.265,-0.633Zm-10.578,-0.586l-0.462,-1.538l-1.515,1.515c-0.195,0.195 -0.451,0.293 -0.707,0.293c0,0.256 0.098,0.512 0.293,0.707c0.39,0.39 1.024,0.39 1.414,0l0.977,-0.977Zm7.419,-3.355l-1,-1c-0.319,0.188 -0.665,0.333 -1.032,0.428l0,3.008l1,0.5l0,-2.508c0.367,-0.095 0.713,-0.24 1.032,-0.428Zm-10.102,0.851c0.022,0.398 0.282,0.761 0.683,0.894l0.534,0.178c0.031,0.005 0.049,0.01 0.052,0.018l0.455,-0.455l-1.724,-0.635Zm18.07,-5.297c-0,0.552 -0.448,1 -1,1l-1.382,0l0.276,0.553c0.247,0.493 0.047,1.095 -0.447,1.341c-0.183,0.092 -0.38,0.122 -0.569,0.098l0.228,0.455c0.246,0.494 0.848,0.694 1.341,0.447c0.494,-0.246 0.694,-0.848 0.447,-1.341l-0.276,-0.553l1.382,0c0.552,0 1,-0.448 1,-1c0,-0.552 -0.448,-1 -1,-1Zm-19,3c-0,0 0,0.011 0,0.011c0.005,0.363 0.206,0.71 0.553,0.883c0.493,0.247 1.095,0.047 1.341,-0.447l0.724,-1.447l2.508,0l-0.012,-0.035c-0.118,-0.364 -0.114,-0.618 -0.114,-0.965l-3.382,0l-0.724,1.447c-0.175,0.35 -0.527,0.553 -0.894,0.553Zm12.446,0.032l0.14,-0.26c0.121,-0.244 0.218,-0.503 0.288,-0.772l2.508,0l-0.5,-1l-3.008,0c-0.095,0.367 -0.24,0.713 -0.428,1.032l1,1Zm-3.682,-0.046c-0.087,0.009 -0.175,0.014 -0.264,0.014c-1.38,0 -2.5,-1.12 -2.5,-2.5c0,-1.38 1.12,-2.5 2.5,-2.5c1.38,0 2.5,1.12 2.5,2.5c-0,0.089 -0.005,0.177 -0.014,0.264c-0.053,-0.452 -0.257,-0.858 -0.561,-1.167l-0.022,-0.022c-0.361,-0.356 -0.857,-0.575 -1.403,-0.575c-0.546,0 -1.042,0.219 -1.403,0.575l-0.022,0.022c-0.356,0.361 -0.575,0.857 -0.575,1.403c-0,0.546 0.219,1.042 0.575,1.403l0.022,0.022c0.309,0.304 0.715,0.508 1.167,0.561Zm-10.764,-1.986c0,0.552 0.448,1 1,1l1.382,0l-0.106,0.212c0.125,-0.215 0.224,-0.447 0.33,-0.659l0.277,-0.553l-2.883,0Zm19.088,-2.996l-0.02,-0.002l-0.832,1.998l1.382,0l0.276,-0.553c0.247,-0.493 0.047,-1.095 -0.447,-1.341c-0.115,-0.058 -0.237,-0.092 -0.359,-0.102Zm-4.642,0.964l1.774,-1.774l1.535,0.512c0.523,0.175 1.09,-0.109 1.265,-0.632c0.174,-0.524 -0.109,-1.091 -0.633,-1.265l-0.317,-0.106c0.007,0.122 -0.009,0.247 -0.05,0.371c-0.175,0.523 -0.742,0.807 -1.265,0.632l-1.535,-0.512l-1.774,1.774c0.455,0.769 0.533,1.095 0.554,2.032l0.874,0l-0.019,-0.069c-0.094,-0.341 -0.233,-0.664 -0.409,-0.963Zm-11.385,-0.966l1.057,1.998l0.5,0l-0.724,-1.447c-0.165,-0.331 -0.489,-0.53 -0.833,-0.551Zm2.719,-0.808l-1,-1l-1.535,0.512c-0.105,0.035 -0.211,0.052 -0.316,0.052c-0,0.104 0.016,0.211 0.051,0.316c0.175,0.523 0.742,0.807 1.265,0.632l1.535,-0.512Zm7.22,-5.194c-0,0.367 -0.203,0.719 -0.553,0.894l-1.447,0.724l-0,3.382c0.404,-0.013 0.598,0.002 1,0.126l-0,-2.508l1.447,-0.724c0.494,-0.246 0.694,-0.848 0.447,-1.341c-0.175,-0.35 -0.527,-0.553 -0.894,-0.553Zm-6.242,0.929c-0,0.105 -0.017,0.211 -0.052,0.316l-0.512,1.535l1,1l0.512,-1.535c0.175,-0.523 -0.109,-1.09 -0.632,-1.265c-0.105,-0.035 -0.212,-0.051 -0.316,-0.051Zm11.313,0l-0,0c-0,0.256 -0.098,0.512 -0.293,0.707l-1.408,1.408l1.431,0.569l0.977,-0.977c0.39,-0.39 0.39,-1.024 0,-1.414c-0.195,-0.195 -0.451,-0.293 -0.707,-0.293Zm-2.774,0.001l0.565,1.794l0.525,-0.525l-0.196,-0.586c-0.133,-0.401 -0.496,-0.661 -0.894,-0.683Zm-6.744,0.964l1.447,0.724l0,-0.5l-1.992,-0.996c0.039,0.321 0.234,0.617 0.545,0.772Zm2.473,-3.894l-0.026,-0c-0,0 -0,2.907 -0,2.907l1,-0.525c-0,-0 -0,-1.382 -0,-1.382c0,-0.543 -0.434,-0.986 -0.974,-1Z" style="fill:#1687c9;"/><circle cx="100" cy="39" r="18" style="fill:#41b3e6;"/><path d="M111.686,25.314c3.864,3.302 6.314,8.21 6.314,13.686c0,9.934 -8.066,18 -18,18c-5.476,0 -10.384,-2.45 -13.686,-6.314c3.145,2.689 7.227,4.314 11.686,4.314c9.934,0 18,-8.066 18,-18c0,-4.459 -1.625,-8.541 -4.314,-11.686Zm-9.736,20.37c0.14,0.286 0.219,0.609 0.219,0.95c-0,1.197 -0.972,2.168 -2.169,2.168c-0.341,0 -0.663,-0.078 -0.95,-0.218c0.352,0.721 1.094,1.218 1.95,1.218c1.197,0 2.169,-0.971 2.169,-2.168c-0,-0.857 -0.497,-1.598 -1.219,-1.95Zm4.893,-5.732c0.097,0.113 0.191,0.229 0.282,0.346c0.675,0.874 0.514,2.131 -0.36,2.806c-0.673,0.52 -1.574,0.543 -2.261,0.127c0.164,0.16 0.316,0.332 0.456,0.513c0.675,0.873 1.932,1.035 2.805,0.36c0.874,-0.675 1.035,-1.932 0.36,-2.806c-0.38,-0.491 -0.81,-0.943 -1.282,-1.346Zm-13.208,3.393c0.13,0.289 0.331,0.551 0.6,0.759c0.873,0.675 2.13,0.513 2.805,-0.36c0.915,-1.184 2.349,-1.949 3.96,-1.949c1.128,0 2.168,0.375 3.005,1.006c-0.015,-0.019 -0.03,-0.038 -0.045,-0.057c-0.915,-1.184 -2.349,-1.949 -3.96,-1.949c-1.611,0 -3.045,0.765 -3.96,1.949c-0.577,0.747 -1.58,0.973 -2.405,0.601Zm16.75,-9.935c0.384,0.425 0.743,0.873 1.073,1.343c0.635,0.903 0.418,2.152 -0.485,2.787c-0.627,0.44 -1.42,0.47 -2.059,0.146c0.094,0.121 0.185,0.243 0.272,0.368c0.635,0.903 1.884,1.121 2.787,0.486c0.903,-0.635 1.12,-1.884 0.485,-2.787c-0.602,-0.857 -1.298,-1.643 -2.073,-2.343Zm-21.03,4.317c0.142,0.316 0.368,0.599 0.672,0.813c0.903,0.635 2.152,0.417 2.787,-0.486c1.81,-2.574 4.803,-4.259 8.186,-4.259c2.506,0 4.797,0.924 6.552,2.449c-1.834,-2.112 -4.538,-3.449 -7.552,-3.449c-3.383,0 -6.376,1.685 -8.186,4.259c-0.561,0.798 -1.601,1.061 -2.459,0.673Z" style="fill:#2898d4;"/><path d="M100,44.465c-1.197,-0 -2.169,0.971 -2.169,2.169c0,1.197 0.972,2.168 2.169,2.168c1.197,0 2.169,-0.971 2.169,-2.168c-0,-1.198 -0.972,-2.169 -2.169,-2.169Zm-3.96,-1.721c0.915,-1.184 2.349,-1.949 3.96,-1.949c1.611,0 3.045,0.765 3.96,1.949c0.675,0.873 1.932,1.035 2.805,0.36c0.874,-0.675 1.035,-1.932 0.36,-2.806c-1.646,-2.13 -4.227,-3.503 -7.125,-3.503c-2.898,0 -5.479,1.373 -7.125,3.503c-0.675,0.874 -0.514,2.131 0.36,2.806c0.873,0.675 2.13,0.513 2.805,-0.36Zm-4.226,-5.69c1.81,-2.574 4.803,-4.259 8.186,-4.259c3.383,0 6.376,1.685 8.186,4.259c0.635,0.903 1.884,1.121 2.787,0.486c0.903,-0.635 1.12,-1.884 0.485,-2.787c-2.533,-3.603 -6.723,-5.958 -11.458,-5.958c-4.735,0 -8.925,2.355 -11.458,5.958c-0.635,0.903 -0.418,2.152 0.485,2.787c0.903,0.635 2.152,0.417 2.787,-0.486Z" style="fill:#fff;"/><path d="M100.95,44.684c0.14,0.286 0.219,0.609 0.219,0.95c-0,1.197 -0.972,2.168 -2.169,2.168c-0.341,0 -0.663,-0.078 -0.95,-0.218c0.352,0.721 1.094,1.218 1.95,1.218c1.197,0 2.169,-0.971 2.169,-2.168c-0,-0.857 -0.497,-1.598 -1.219,-1.95Zm4.893,-5.732c0.097,0.113 0.191,0.229 0.282,0.346c0.675,0.874 0.514,2.131 -0.36,2.806c-0.673,0.52 -1.574,0.543 -2.261,0.127c0.164,0.16 0.316,0.332 0.456,0.513c0.675,0.873 1.932,1.035 2.805,0.36c0.874,-0.675 1.035,-1.932 0.36,-2.806c-0.38,-0.491 -0.81,-0.943 -1.282,-1.346Zm-13.208,3.393c0.13,0.289 0.331,0.551 0.6,0.759c0.873,0.675 2.13,0.513 2.805,-0.36c0.915,-1.184 2.349,-1.949 3.96,-1.949c1.128,0 2.168,0.375 3.005,1.006c-0.015,-0.019 -0.03,-0.038 -0.045,-0.057c-0.915,-1.184 -2.349,-1.949 -3.96,-1.949c-1.611,0 -3.045,0.765 -3.96,1.949c-0.577,0.747 -1.58,0.973 -2.405,0.601Zm16.75,-9.935c0.384,0.425 0.743,0.873 1.073,1.343c0.635,0.903 0.418,2.152 -0.485,2.787c-0.627,0.44 -1.42,0.47 -2.059,0.146c0.094,0.121 0.185,0.243 0.272,0.368c0.635,0.903 1.884,1.121 2.787,0.486c0.903,-0.635 1.12,-1.884 0.485,-2.787c-0.602,-0.857 -1.298,-1.643 -2.073,-2.343Zm-21.03,4.317c0.142,0.316 0.368,0.599 0.672,0.813c0.903,0.635 2.152,0.417 2.787,-0.486c1.81,-2.574 4.803,-4.259 8.186,-4.259c2.506,0 4.797,0.924 6.552,2.449c-1.834,-2.112 -4.538,-3.449 -7.552,-3.449c-3.383,0 -6.376,1.685 -8.186,4.259c-0.561,0.798 -1.601,1.061 -2.459,0.673Z" style="fill:#eeefef;"/></svg>