<svg width="128" height="128" xmlns="http://www.w3.org/2000/svg" clip-rule="evenodd">

 <g>
  <title>background</title>
  <rect fill="none" id="canvas_background" height="402" width="582" y="-1" x="-1"/>
 </g>
 <g>
  <title>Layer 1</title>
  <path id="svg_1" fill="#424243" d="m110,46c0,-3.314 -2.686,-6 -6,-6l-88,0c-3.314,0 -6,2.686 -6,6l0,26c0,3.314 2.686,6 6,6l88,0c3.314,0 6,-2.686 6,-6l0,-26z"/>
  <path id="svg_2" fill="#202020" d="m108,55.126l0,-11.126c0,-1.144 -0.32,-2.214 -0.876,-3.124c1.725,1.054 2.876,2.955 2.876,5.124l0,26c0,3.314 -2.686,6 -6,6l-88,0c-2.169,0 -4.07,-1.151 -5.124,-2.876c0.91,0.556 1.98,0.876 3.124,0.876l1,0l0,-6c0,-1.061 0.421,-2.078 1.172,-2.828c0.75,-0.751 1.767,-1.172 2.828,-1.172c14.412,0 64.588,0 79,0c1.061,0 2.105,0.421 2.855,1.172c0.345,0.345 0.948,1.746 1.145,2.182l-0.172,-0.182c-0.75,-0.751 -1.767,-1.172 -2.828,-1.172c-14.412,0 -63.588,0 -78,0c-1.061,0 -2.078,0.421 -2.828,1.172c-0.751,0.75 -1.172,1.767 -1.172,2.828l0,4l85,0c3.314,0 6,-2.686 6,-6l0,-12.026c-1.877,0.664 -3.897,1.026 -6,1.026c-5.476,0 -10.384,-2.45 -13.686,-6.314c3.145,2.689 7.227,4.314 11.686,4.314c2.873,0 5.589,-0.674 8,-1.874z"/>
  <path id="svg_3" fill="#eeefef" d="m103,72c0,-1.061 -0.421,-2.078 -1.172,-2.828c-0.75,-0.751 -1.767,-1.172 -2.828,-1.172c-14.412,0 -63.588,0 -78,0c-1.061,0 -2.078,0.421 -2.828,1.172c-0.751,0.75 -1.172,1.767 -1.172,2.828c0,2.784 0,6 0,6l86,0l0,-6z"/>
  <path id="svg_4" fill="#e0e1e0" d="m19,78l0,-4c0,-1.061 0.421,-2.078 1.172,-2.828c0.75,-0.751 1.767,-1.172 2.828,-1.172c14.412,0 63.588,0 78,0c0.573,0 1.133,0.123 1.646,0.354c-0.197,-0.436 -0.473,-0.837 -0.818,-1.182c-0.75,-0.751 -1.767,-1.172 -2.828,-1.172c-14.412,0 -63.588,0 -78,0c-1.061,0 -2.078,0.421 -2.828,1.172c-0.751,0.75 -1.172,1.767 -1.172,2.828c0,2.784 0,6 0,6l2,0z"/>
  <path id="svg_5" fill="#bdbdbd" d="m103,77c0,-1.061 -0.421,-2.078 -1.172,-2.828c-0.75,-0.751 -1.767,-1.172 -2.828,-1.172c-14.412,0 -63.588,0 -78,0c-1.061,0 -2.078,0.421 -2.828,1.172c-0.751,0.75 -1.172,1.767 -1.172,2.828c0,0.588 0,1 0,1l86,0l0,-1z"/>
  <path id="svg_6" fill="#767576" d="m19.029,73.519c-0.311,0.177 -0.6,0.395 -0.857,0.653c-0.751,0.75 -1.172,1.767 -1.172,2.828l0,1l2,0l0,-4c0,-0.161 0.01,-0.322 0.029,-0.481z"/>
  <path id="svg_7" fill="#fff" d="m72,56c0,-0.53 -0.211,-1.039 -0.586,-1.414c-0.375,-0.375 -0.884,-0.586 -1.414,-0.586c-4.52,0 -15.48,0 -20,0c-0.53,0 -1.039,0.211 -1.414,0.586c-0.375,0.375 -0.586,0.884 -0.586,1.414c0,1.222 0,2.778 0,4c0,0.53 0.211,1.039 0.586,1.414c0.375,0.375 0.884,0.586 1.414,0.586c4.52,0 15.48,0 20,0c0.53,0 1.039,-0.211 1.414,-0.586c0.375,-0.375 0.586,-0.884 0.586,-1.414c0,-1.222 0,-2.778 0,-4z"/>
  <path id="svg_8" fill="#eeefef" d="m70,54l0,4c0,0.53 -0.211,1.039 -0.586,1.414c-0.375,0.375 -0.884,0.586 -1.414,0.586l-20,0l0,0c0,0.53 0.211,1.039 0.586,1.414c0.375,0.375 0.884,0.586 1.414,0.586c4.52,0 15.48,0 20,0c0.53,0 1.039,-0.211 1.414,-0.586c0.375,-0.375 0.586,-0.884 0.586,-1.414c0,-1.222 0,-2.778 0,-4c0,-0.53 -0.211,-1.039 -0.586,-1.414c-0.375,-0.375 -0.884,-0.586 -1.414,-0.586z"/>
  <path id="svg_9" fill="#fff" d="m18.5,48l-2,0c-0.828,0 -1.5,-0.672 -1.5,-1.5c0,-0.828 0.672,-1.5 1.5,-1.5l2,0c0.828,0 1.5,0.672 1.5,1.5c0,0.828 -0.672,1.5 -1.5,1.5zm29,0l-22,0c-0.828,0 -1.5,-0.672 -1.5,-1.5c0,-0.828 0.672,-1.5 1.5,-1.5l22,0c0.828,0 1.5,0.672 1.5,1.5c0,0.828 -0.672,1.5 -1.5,1.5z"/>
  <path id="svg_10" fill="#eeefef" d="m18.936,45.064c0.615,0.187 1.064,0.76 1.064,1.436c0,0.828 -0.672,1.5 -1.5,1.5l-2,0c-0.676,0 -1.249,-0.449 -1.436,-1.064c0.138,0.041 0.284,0.064 0.436,0.064l2,0c0.828,0 1.5,-0.672 1.5,-1.5c0,-0.152 -0.023,-0.298 -0.064,-0.436zm29,0c0.615,0.187 1.064,0.76 1.064,1.436c0,0.828 -0.672,1.5 -1.5,1.5l-22,0c-0.676,0 -1.249,-0.449 -1.436,-1.064c0.138,0.041 0.284,0.064 0.436,0.064l22,0c0.828,0 1.5,-0.672 1.5,-1.5c0,-0.152 -0.023,-0.298 -0.064,-0.436z"/>
  <circle id="svg_15" fill="#41b3e6" r="18" cy="39" cx="100"/>
  <path id="svg_16" fill="#2898d4" d="m111.686,25.314c3.864,3.302 6.314,8.21 6.314,13.686c0,9.934 -8.066,18 -18,18c-5.476,0 -10.384,-2.45 -13.686,-6.314c3.145,2.689 7.227,4.314 11.686,4.314c9.934,0 18,-8.066 18,-18c0,-4.459 -1.625,-8.541 -4.314,-11.686zm-9.736,20.37c0.14,0.286 0.219,0.609 0.219,0.95c0,1.197 -0.972,2.168 -2.169,2.168c-0.341,0 -0.663,-0.078 -0.95,-0.218c0.352,0.721 1.094,1.218 1.95,1.218c1.197,0 2.169,-0.971 2.169,-2.168c0,-0.857 -0.497,-1.598 -1.219,-1.95zm4.893,-5.732c0.097,0.113 0.191,0.229 0.282,0.346c0.675,0.874 0.514,2.131 -0.36,2.806c-0.673,0.52 -1.574,0.543 -2.261,0.127c0.164,0.16 0.316,0.332 0.456,0.513c0.675,0.873 1.932,1.035 2.805,0.36c0.874,-0.675 1.035,-1.932 0.36,-2.806c-0.38,-0.491 -0.81,-0.943 -1.282,-1.346zm-13.208,3.393c0.13,0.289 0.331,0.551 0.6,0.759c0.873,0.675 2.13,0.513 2.805,-0.36c0.915,-1.184 2.349,-1.949 3.96,-1.949c1.128,0 2.168,0.375 3.005,1.006c-0.015,-0.019 -0.03,-0.038 -0.045,-0.057c-0.915,-1.184 -2.349,-1.949 -3.96,-1.949c-1.611,0 -3.045,0.765 -3.96,1.949c-0.577,0.747 -1.58,0.973 -2.405,0.601zm16.75,-9.935c0.384,0.425 0.743,0.873 1.073,1.343c0.635,0.903 0.418,2.152 -0.485,2.787c-0.627,0.44 -1.42,0.47 -2.059,0.146c0.094,0.121 0.185,0.243 0.272,0.368c0.635,0.903 1.884,1.121 2.787,0.486c0.903,-0.635 1.12,-1.884 0.485,-2.787c-0.602,-0.857 -1.298,-1.643 -2.073,-2.343zm-21.03,4.317c0.142,0.316 0.368,0.599 0.672,0.813c0.903,0.635 2.152,0.417 2.787,-0.486c1.81,-2.574 4.803,-4.259 8.186,-4.259c2.506,0 4.797,0.924 6.552,2.449c-1.834,-2.112 -4.538,-3.449 -7.552,-3.449c-3.383,0 -6.376,1.685 -8.186,4.259c-0.561,0.798 -1.601,1.061 -2.459,0.673z"/>
  <path id="svg_17" fill="#fff" d="m100,44.465c-1.197,0 -2.169,0.971 -2.169,2.169c0,1.197 0.972,2.168 2.169,2.168c1.197,0 2.169,-0.971 2.169,-2.168c0,-1.198 -0.972,-2.169 -2.169,-2.169zm-3.96,-1.721c0.915,-1.184 2.349,-1.949 3.96,-1.949c1.611,0 3.045,0.765 3.96,1.949c0.675,0.873 1.932,1.035 2.805,0.36c0.874,-0.675 1.035,-1.932 0.36,-2.806c-1.646,-2.13 -4.227,-3.503 -7.125,-3.503c-2.898,0 -5.479,1.373 -7.125,3.503c-0.675,0.874 -0.514,2.131 0.36,2.806c0.873,0.675 2.13,0.513 2.805,-0.36zm-4.226,-5.69c1.81,-2.574 4.803,-4.259 8.186,-4.259c3.383,0 6.376,1.685 8.186,4.259c0.635,0.903 1.884,1.121 2.787,0.486c0.903,-0.635 1.12,-1.884 0.485,-2.787c-2.533,-3.603 -6.723,-5.958 -11.458,-5.958c-4.735,0 -8.925,2.355 -11.458,5.958c-0.635,0.903 -0.418,2.152 0.485,2.787c0.903,0.635 2.152,0.417 2.787,-0.486z"/>
  <path id="svg_18" fill="#eeefef" d="m100.95,44.684c0.14,0.286 0.219,0.609 0.219,0.95c0,1.197 -0.972,2.168 -2.169,2.168c-0.341,0 -0.663,-0.078 -0.95,-0.218c0.352,0.721 1.094,1.218 1.95,1.218c1.197,0 2.169,-0.971 2.169,-2.168c0,-0.857 -0.497,-1.598 -1.219,-1.95zm4.893,-5.732c0.097,0.113 0.191,0.229 0.282,0.346c0.675,0.874 0.514,2.131 -0.36,2.806c-0.673,0.52 -1.574,0.543 -2.261,0.127c0.164,0.16 0.316,0.332 0.456,0.513c0.675,0.873 1.932,1.035 2.805,0.36c0.874,-0.675 1.035,-1.932 0.36,-2.806c-0.38,-0.491 -0.81,-0.943 -1.282,-1.346zm-13.208,3.393c0.13,0.289 0.331,0.551 0.6,0.759c0.873,0.675 2.13,0.513 2.805,-0.36c0.915,-1.184 2.349,-1.949 3.96,-1.949c1.128,0 2.168,0.375 3.005,1.006c-0.015,-0.019 -0.03,-0.038 -0.045,-0.057c-0.915,-1.184 -2.349,-1.949 -3.96,-1.949c-1.611,0 -3.045,0.765 -3.96,1.949c-0.577,0.747 -1.58,0.973 -2.405,0.601zm16.75,-9.935c0.384,0.425 0.743,0.873 1.073,1.343c0.635,0.903 0.418,2.152 -0.485,2.787c-0.627,0.44 -1.42,0.47 -2.059,0.146c0.094,0.121 0.185,0.243 0.272,0.368c0.635,0.903 1.884,1.121 2.787,0.486c0.903,-0.635 1.12,-1.884 0.485,-2.787c-0.602,-0.857 -1.298,-1.643 -2.073,-2.343zm-21.03,4.317c0.142,0.316 0.368,0.599 0.672,0.813c0.903,0.635 2.152,0.417 2.787,-0.486c1.81,-2.574 4.803,-4.259 8.186,-4.259c2.506,0 4.797,0.924 6.552,2.449c-1.834,-2.112 -4.538,-3.449 -7.552,-3.449c-3.383,0 -6.376,1.685 -8.186,4.259c-0.561,0.798 -1.601,1.061 -2.459,0.673z"/>
 </g>
</svg>