<svg width="128" height="128" xmlns="http://www.w3.org/2000/svg" clip-rule="evenodd">

 <g>
  <title>background</title>
  <rect fill="none" id="canvas_background" height="402" width="582" y="-1" x="-1"/>
 </g>
 <g>
  <title>Layer 1</title>
  <path id="svg_1" fill="#fcf9c5" d="m107,21.5l-86,0l0,85.5c0,1.591 0.632,3.117 1.757,4.243c1.126,1.125 2.652,1.757 4.243,1.757c15.766,0 58.234,0 74,0c1.591,0 3.117,-0.632 4.243,-1.757c1.125,-1.126 1.757,-2.652 1.757,-4.243c0,-20.352 0,-85.5 0,-85.5z"/>
  <path id="svg_2" fill="#fcf69f" d="m21,25.5l0,-2l86,0l0,2l-65,0l0,41l16,0c1.061,0 2.078,-0.421 2.828,-1.172c0.751,-0.75 1.172,-1.767 1.172,-2.828l0,-30c0,-0.573 -0.123,-1.133 -0.354,-1.646c0.436,0.197 0.837,0.473 1.182,0.818c0.751,0.75 1.172,1.767 1.172,2.828l0,30c0,1.061 -0.421,2.078 -1.172,2.828c-0.75,0.751 -1.767,1.172 -2.828,1.172l-18,0l0,40l16,0c1.061,0 2.078,-0.421 2.828,-1.172c0.751,-0.75 1.172,-1.767 1.172,-2.828l0,-30c0,-0.573 -0.123,-1.133 -0.354,-1.646c0.436,0.197 0.837,0.473 1.182,0.818c0.751,0.75 1.172,1.767 1.172,2.828l0,30c0,1.061 -0.421,2.078 -1.172,2.828c-0.75,0.751 -1.767,1.172 -2.828,1.172l-18,0l0,2.5l-2.022,0c0.014,-0.165 0.022,-0.332 0.022,-0.5l0,-2l-10,0c-1.061,0 -2.078,-0.421 -2.828,-1.172c-0.345,-0.345 -0.621,-0.746 -0.818,-1.182c0.513,0.231 1.073,0.354 1.646,0.354l12,0l0,-40l-10,0c-1.061,0 -2.078,-0.421 -2.828,-1.172c-0.345,-0.345 -0.621,-0.746 -0.818,-1.182c0.513,0.231 1.073,0.354 1.646,0.354l12,0l0,-41l-19,0zm82.646,47.354c0.436,0.197 0.837,0.473 1.182,0.818c0.751,0.75 1.172,1.767 1.172,2.828l0,30c0,1.061 -0.421,2.078 -1.172,2.828c-0.75,0.751 -1.767,1.172 -2.828,1.172l-30,0c-1.061,0 -2.078,-0.421 -2.828,-1.172c-0.345,-0.345 -0.621,-0.746 -0.818,-1.182c0.513,0.231 1.073,0.354 1.646,0.354l30,0c1.061,0 2.078,-0.421 2.828,-1.172c0.751,-0.75 1.172,-1.767 1.172,-2.828l0,-30c0,-0.573 -0.123,-1.133 -0.354,-1.646zm0,-42c0.436,0.197 0.837,0.473 1.182,0.818c0.751,0.75 1.172,1.767 1.172,2.828l0,30c0,1.061 -0.421,2.078 -1.172,2.828c-0.75,0.751 -1.767,1.172 -2.828,1.172l-30,0c-1.061,0 -2.078,-0.421 -2.828,-1.172c-0.345,-0.345 -0.621,-0.746 -0.818,-1.182c0.513,0.231 1.073,0.354 1.646,0.354l30,0c1.061,0 2.078,-0.421 2.828,-1.172c0.751,-0.75 1.172,-1.767 1.172,-2.828l0,-30c0,-0.573 -0.123,-1.133 -0.354,-1.646z"/>
  <path id="svg_3" fill="#424243" d="m114,21c0,-0.663 -0.263,-1.299 -0.732,-1.768c-0.469,-0.469 -1.105,-0.732 -1.768,-0.732c-13.86,0 -81.14,0 -95,0c-0.663,0 -1.299,0.263 -1.768,0.732c-0.469,0.469 -0.732,1.105 -0.732,1.768c0,0.663 0.263,1.299 0.732,1.768c0.469,0.469 1.105,0.732 1.768,0.732c13.86,0 81.14,0 95,0c0.663,0 1.299,-0.263 1.768,-0.732c0.469,-0.469 0.732,-1.105 0.732,-1.768c0,0 0,0 0,0z"/>
  <path id="svg_4" fill="#202020" d="m111.958,18.542c0.028,0.15 0.042,0.303 0.042,0.458c0,0 0,0 0,0c0,0.663 -0.263,1.299 -0.732,1.768c-0.469,0.469 -1.105,0.732 -1.768,0.732c-13.86,0 -81.14,0 -95,0c-0.155,0 -0.308,-0.014 -0.458,-0.042c0.092,0.493 0.331,0.95 0.69,1.31c0.469,0.469 1.105,0.732 1.768,0.732c13.86,0 81.14,0 95,0c0.663,0 1.299,-0.263 1.768,-0.732c0.469,-0.469 0.732,-1.105 0.732,-1.768c0,0 0,0 0,0c0,-0.663 -0.263,-1.299 -0.732,-1.768c-0.36,-0.359 -0.817,-0.598 -1.31,-0.69z"/>
  <path id="svg_5" fill="#424243" d="m24,74.5c0,-1.061 0.421,-2.078 1.172,-2.828c0.75,-0.751 1.767,-1.172 2.828,-1.172l30,0c1.061,0 2.078,0.421 2.828,1.172c0.751,0.75 1.172,1.767 1.172,2.828l0,30c0,1.061 -0.421,2.078 -1.172,2.828c-0.75,0.751 -1.767,1.172 -2.828,1.172l-30,0c-1.061,0 -2.078,-0.421 -2.828,-1.172c-0.751,-0.75 -1.172,-1.767 -1.172,-2.828l0,-30zm80,30c0,1.061 -0.421,2.078 -1.172,2.828c-0.75,0.751 -1.767,1.172 -2.828,1.172l-30,0c-1.061,0 -2.078,-0.421 -2.828,-1.172c-0.751,-0.75 -1.172,-1.767 -1.172,-2.828l0,-30c0,-1.061 0.421,-2.078 1.172,-2.828c0.75,-0.751 1.767,-1.172 2.828,-1.172l30,0c1.061,0 2.078,0.421 2.828,1.172c0.751,0.75 1.172,1.767 1.172,2.828l0,30zm-46,-76c1.061,0 2.078,0.421 2.828,1.172c0.751,0.75 1.172,1.767 1.172,2.828l0,30c0,1.061 -0.421,2.078 -1.172,2.828c-0.75,0.751 -1.767,1.172 -2.828,1.172l-30,0c-1.061,0 -2.078,-0.421 -2.828,-1.172c-0.751,-0.75 -1.172,-1.767 -1.172,-2.828l0,-30c0,-1.061 0.421,-2.078 1.172,-2.828c0.75,-0.751 1.767,-1.172 2.828,-1.172l30,0zm46,34c0,1.061 -0.421,2.078 -1.172,2.828c-0.75,0.751 -1.767,1.172 -2.828,1.172l-30,0c-1.061,0 -2.078,-0.421 -2.828,-1.172c-0.751,-0.75 -1.172,-1.767 -1.172,-2.828l0,-30c0,-1.061 0.421,-2.078 1.172,-2.828c0.75,-0.751 1.767,-1.172 2.828,-1.172l30,0c1.061,0 2.078,0.421 2.828,1.172c0.751,0.75 1.172,1.767 1.172,2.828l0,30z"/>
  <path id="svg_6" fill="#202020" d="m42,72.5l13,0c0.53,0 1.081,0.493 1.414,0.871c0.334,0.378 0.586,0.867 0.586,1.397l0,0c-0.302,-0.174 -0.646,-0.268 -1,-0.268l-14,0l0,32l14,0c1.061,0 2.078,-0.421 2.828,-1.172c0.751,-0.75 1.172,-1.767 1.172,-2.828l0,-30c0,-0.573 -0.123,-1.133 -0.354,-1.646c0.436,0.197 0.837,0.473 1.182,0.818c0.751,0.75 1.172,1.767 1.172,2.828l0,30c0,1.061 -0.421,2.078 -1.172,2.828c-0.75,0.751 -1.767,1.172 -2.828,1.172l-30,0c-1.061,0 -2.078,-0.421 -2.828,-1.172c-0.345,-0.345 -0.621,-0.746 -0.818,-1.182c0.513,0.231 1.073,0.354 1.646,0.354l14,0l0,-32l-10,0c-0.53,0 -1.039,0.211 -1.414,0.586c-0.375,0.375 -0.586,0.884 -0.586,1.414l0,26c0,0.344 0.089,0.68 0.254,0.975l0,0c-0.531,0 -1.113,-0.252 -1.489,-0.585c-0.376,-0.334 -0.765,-0.884 -0.765,-1.415l0,-26.975c0,-0.53 0.211,-1.039 0.586,-1.414c0.375,-0.375 0.884,-0.586 1.414,-0.586l12,0l0,-2l2,0l0,2zm59.646,-1.646c0.436,0.197 0.837,0.473 1.182,0.818c0.751,0.75 1.172,1.767 1.172,2.828l0,30c0,1.061 -0.421,2.078 -1.172,2.828c-0.75,0.751 -1.767,1.172 -2.828,1.172l-30,0c-1.061,0 -2.078,-0.421 -2.828,-1.172c-0.345,-0.345 -0.621,-0.746 -0.818,-1.182c0.513,0.231 1.073,0.354 1.646,0.354l30,0c1.061,0 2.078,-0.421 2.828,-1.172c0.751,-0.75 1.172,-1.767 1.172,-2.828l0,-30c0,-0.573 -0.123,-1.133 -0.354,-1.646zm-31.392,32.621l0,0c-0.531,0 -1.113,-0.252 -1.489,-0.585c-0.376,-0.334 -0.765,-0.884 -0.765,-1.415l0,-26.975c0,-0.53 0.211,-1.039 0.586,-1.414c0.375,-0.375 0.884,-0.586 1.414,-0.586l27,0c0.53,0 1.081,0.493 1.414,0.871c0.334,0.378 0.586,0.867 0.586,1.397l0,0c-0.302,-0.174 -0.646,-0.268 -1,-0.268l-26,0c-0.545,0 -1.081,0.252 -1.414,0.586c-0.334,0.333 -0.586,0.855 -0.586,1.414c0,5.455 0,20.545 0,26c0,0.344 0.089,0.68 0.254,0.975zm-30.254,-72.975l0,-2l2,0l0,2l13,0c0.53,0 1.081,0.493 1.414,0.871c0.334,0.378 0.586,0.867 0.586,1.397l0,0c-0.302,-0.174 -0.646,-0.268 -1,-0.268l-14,0l0,32l14,0c1.061,0 2.078,-0.421 2.828,-1.172c0.751,-0.75 1.172,-1.767 1.172,-2.828l0,-30c0,-0.573 -0.123,-1.133 -0.354,-1.646c0.436,0.197 0.837,0.473 1.182,0.818c0.751,0.75 1.172,1.767 1.172,2.828l0,30c0,1.061 -0.421,2.078 -1.172,2.828c-0.75,0.751 -1.767,1.172 -2.828,1.172l-30,0c-1.061,0 -2.078,-0.421 -2.828,-1.172c-0.345,-0.345 -0.621,-0.746 -0.818,-1.182c0.513,0.231 1.073,0.354 1.646,0.354l14,0l0,-32l-10,0c-0.53,0 -1.039,0.211 -1.414,0.586c-0.375,0.375 -0.586,0.884 -0.586,1.414l0,26c0,0.344 0.089,0.68 0.254,0.975l0,0c-0.531,0 -1.113,-0.252 -1.489,-0.585c-0.376,-0.334 -0.765,-0.884 -0.765,-1.415l0,-26.975c0,-0.53 0.211,-1.039 0.586,-1.414c0.375,-0.375 0.884,-0.586 1.414,-0.586l12,0zm61.646,-1.646c0.436,0.197 0.837,0.473 1.182,0.818c0.751,0.75 1.172,1.767 1.172,2.828l0,30c0,1.061 -0.421,2.078 -1.172,2.828c-0.75,0.751 -1.767,1.172 -2.828,1.172l-30,0c-1.061,0 -2.078,-0.421 -2.828,-1.172c-0.345,-0.345 -0.621,-0.746 -0.818,-1.182c0.513,0.231 1.073,0.354 1.646,0.354l30,0c1.061,0 2.078,-0.421 2.828,-1.172c0.751,-0.75 1.172,-1.767 1.172,-2.828l0,-30c0,-0.573 -0.123,-1.133 -0.354,-1.646zm-31.392,32.621l0,0c-0.531,0 -1.113,-0.252 -1.489,-0.585c-0.376,-0.334 -0.765,-0.884 -0.765,-1.415l0,-26.975c0,-0.53 0.211,-1.039 0.586,-1.414c0.375,-0.375 0.884,-0.586 1.414,-0.586l27,0c0.53,0 1.081,0.493 1.414,0.871c0.334,0.378 0.586,0.867 0.586,1.397l0,0c-0.302,-0.174 -0.646,-0.268 -1,-0.268l-26,0c-0.53,0 -1.039,0.211 -1.414,0.586c-0.375,0.375 -0.586,0.884 -0.586,1.414l0,26c0,0.344 0.089,0.68 0.254,0.975z"/>
  <path id="svg_7" fill="#f6f8f9" d="m28,76.5c0,-0.53 0.211,-1.039 0.586,-1.414c0.375,-0.375 0.884,-0.586 1.414,-0.586l26,0c0.53,0 1.039,0.211 1.414,0.586c0.375,0.375 0.586,0.884 0.586,1.414l0,26c0,0.53 -0.211,1.039 -0.586,1.414c-0.375,0.375 -0.884,0.586 -1.414,0.586l-26,0c-0.53,0 -1.039,-0.211 -1.414,-0.586c-0.375,-0.375 -0.586,-0.884 -0.586,-1.414l0,-26zm72,26c0,0.53 -0.211,1.039 -0.586,1.414c-0.375,0.375 -0.884,0.586 -1.414,0.586l-26,0c-0.53,0 -1.039,-0.211 -1.414,-0.586c-0.375,-0.375 -0.586,-0.884 -0.586,-1.414l0,-26c0,-0.53 0.211,-1.039 0.586,-1.414c0.375,-0.375 0.884,-0.586 1.414,-0.586l26,0c0.53,0 1.039,0.211 1.414,0.586c0.375,0.375 0.586,0.884 0.586,1.414l0,26zm-44,-70c0.53,0 1.039,0.211 1.414,0.586c0.375,0.375 0.586,0.884 0.586,1.414l0,26c0,0.53 -0.211,1.039 -0.586,1.414c-0.375,0.375 -0.884,0.586 -1.414,0.586l-26,0c-0.53,0 -1.039,-0.211 -1.414,-0.586c-0.375,-0.375 -0.586,-0.884 -0.586,-1.414l0,-26c0,-0.53 0.211,-1.039 0.586,-1.414c0.375,-0.375 0.884,-0.586 1.414,-0.586l26,0zm44,28c0,0.53 -0.211,1.039 -0.586,1.414c-0.375,0.375 -0.884,0.586 -1.414,0.586l-26,0c-0.53,0 -1.039,-0.211 -1.414,-0.586c-0.375,-0.375 -0.586,-0.884 -0.586,-1.414l0,-26c0,-0.53 0.211,-1.039 0.586,-1.414c0.375,-0.375 0.884,-0.586 1.414,-0.586l26,0c0.53,0 1.039,0.211 1.414,0.586c0.375,0.375 0.586,0.884 0.586,1.414l0,26z"/>
  <path id="svg_8" fill="#eeefef" d="m72,104.5c-0.53,0 -1.039,-0.211 -1.414,-0.586c-0.375,-0.375 -0.586,-0.884 -0.586,-1.414l0,-26c0,-0.53 0.211,-1.039 0.586,-1.414c0.375,-0.375 0.884,-0.586 1.414,-0.586l26,0c0.53,0 1.039,0.211 1.414,0.586c0.375,0.375 0.586,0.884 0.586,1.414l-26,0c-0.53,0 -1.039,0.211 -1.414,0.586c-0.375,0.375 -0.586,0.884 -0.586,1.414l0,26zm-42,0c-0.53,0 -1.039,-0.211 -1.414,-0.586c-0.375,-0.375 -0.586,-0.884 -0.586,-1.414l0,-26c0,-0.53 0.211,-1.039 0.586,-1.414c0.375,-0.375 0.884,-0.586 1.414,-0.586l26,0c0.53,0 1.039,0.211 1.414,0.586c0.375,0.375 0.586,0.884 0.586,1.414l-26,0c-0.53,0 -1.039,0.211 -1.414,0.586c-0.375,0.375 -0.586,0.884 -0.586,1.414l0,26zm0,-42c-0.53,0 -1.039,-0.211 -1.414,-0.586c-0.375,-0.375 -0.586,-0.884 -0.586,-1.414l0,-26c0,-0.53 0.211,-1.039 0.586,-1.414c0.375,-0.375 0.884,-0.586 1.414,-0.586l26,0c0.53,0 1.039,0.211 1.414,0.586c0.375,0.375 0.586,0.884 0.586,1.414l-26,0c-0.53,0 -1.039,0.211 -1.414,0.586c-0.375,0.375 -0.586,0.884 -0.586,1.414l0,26zm42,0c-0.53,0 -1.039,-0.211 -1.414,-0.586c-0.375,-0.375 -0.586,-0.884 -0.586,-1.414l0,-26c0,-0.53 0.211,-1.039 0.586,-1.414c0.375,-0.375 0.884,-0.586 1.414,-0.586l26,0c0.53,0 1.039,0.211 1.414,0.586c0.375,0.375 0.586,0.884 0.586,1.414l-26,0c-0.53,0 -1.039,0.211 -1.414,0.586c-0.375,0.375 -0.586,0.884 -0.586,1.414l0,26z"/>
  <path id="svg_9" fill="#eeefef" d="m42,104.5l-2,0l0,-30l2,0l0,30zm0,-72l0,30l-2,0l0,-30l2,0z"/>
  <path id="svg_10" fill="#fcf378" d="m52.707,101.207l2,-2c0.39,-0.39 0.39,-1.024 0,-1.414c-0.39,-0.39 -1.024,-0.39 -1.414,0l-2,2c-0.39,0.39 -0.39,1.024 0,1.414c0.39,0.39 1.024,0.39 1.414,0zm0.586,-13.414l-12,12c-0.39,0.39 -0.39,1.024 0,1.414c0.39,0.39 1.024,0.39 1.414,0l12,-12c0.39,-0.39 0.39,-1.024 0,-1.414c-0.39,-0.39 -1.024,-0.39 -1.414,0zm33.414,13.414l2,-2c0.39,-0.39 0.39,-1.024 0,-1.414c-0.39,-0.39 -1.024,-0.39 -1.414,0l-2,2c-0.39,0.39 -0.39,1.024 0,1.414c0.39,0.39 1.024,0.39 1.414,0zm0.586,-13.414l-12,12c-0.39,0.39 -0.39,1.024 0,1.414c0.39,0.39 1.024,0.39 1.414,0l12,-12c0.39,-0.39 0.39,-1.024 0,-1.414c-0.39,-0.39 -1.024,-0.39 -1.414,0zm-34,5l-7,7c-0.39,0.39 -0.39,1.024 0,1.414c0.39,0.39 1.024,0.39 1.414,0l7,-7c0.39,-0.39 0.39,-1.024 0,-1.414c-0.39,-0.39 -1.024,-0.39 -1.414,0zm34,0l-7,7c-0.39,0.39 -0.39,1.024 0,1.414c0.39,0.39 1.024,0.39 1.414,0l7,-7c0.39,-0.39 0.39,-1.024 0,-1.414c-0.39,-0.39 -1.024,-0.39 -1.414,0zm-34,-10l-14,14c-0.39,0.39 -0.39,1.024 0,1.414c0.39,0.39 1.024,0.39 1.414,0l14,-14c0.39,-0.39 0.39,-1.024 0,-1.414c-0.39,-0.39 -1.024,-0.39 -1.414,0zm34,0l-14,14c-0.39,0.39 -0.39,1.024 0,1.414c0.39,0.39 1.024,0.39 1.414,0l14,-14c0.39,-0.39 0.39,-1.024 0,-1.414c-0.39,-0.39 -1.024,-0.39 -1.414,0zm0,-5l-14,14c-0.39,0.39 -0.39,1.024 0,1.414c0.39,0.39 1.024,0.39 1.414,0l14,-14c0.39,-0.39 0.39,-1.024 0,-1.414c-0.39,-0.39 -1.024,-0.39 -1.414,0zm-34,0l-14,14c-0.39,0.39 -0.39,1.024 0,1.414c0.39,0.39 1.024,0.39 1.414,0l14,-14c0.39,-0.39 0.39,-1.024 0,-1.414c-0.39,-0.39 -1.024,-0.39 -1.414,0zm-5,0l-9,9c-0.39,0.39 -0.39,1.024 0,1.414c0.39,0.39 1.024,0.39 1.414,0l9,-9c0.39,-0.39 0.39,-1.024 0,-1.414c-0.39,-0.39 -1.024,-0.39 -1.414,0zm34,0l-9,9c-0.39,0.39 -0.39,1.024 0,1.414c0.39,0.39 1.024,0.39 1.414,0l9,-9c0.39,-0.39 0.39,-1.024 0,-1.414c-0.39,-0.39 -1.024,-0.39 -1.414,0zm-39,0l-4,4c-0.39,0.39 -0.39,1.024 0,1.414c0.39,0.39 1.024,0.39 1.414,0l4,-4c0.39,-0.39 0.39,-1.024 0,-1.414c-0.39,-0.39 -1.024,-0.39 -1.414,0zm34,0l-4,4c-0.39,0.39 -0.39,1.024 0,1.414c0.39,0.39 1.024,0.39 1.414,0l4,-4c0.39,-0.39 0.39,-1.024 0,-1.414c-0.39,-0.39 -1.024,-0.39 -1.414,0zm10,-27l-7,7c-0.39,0.39 -0.39,1.024 0,1.414c0.39,0.39 1.024,0.39 1.414,0l7,-7c0.39,-0.39 0.39,-1.024 0,-1.414c-0.39,-0.39 -1.024,-0.39 -1.414,0zm0,-5l-12,12c-0.39,0.39 -0.39,1.024 0,1.414c0.39,0.39 1.024,0.39 1.414,0l12,-12c0.39,-0.39 0.39,-1.024 0,-1.414c-0.39,-0.39 -1.024,-0.39 -1.414,0zm-34,5l-7,7c-0.39,0.39 -0.39,1.024 0,1.414c0.39,0.39 1.024,0.39 1.414,0l7,-7c0.39,-0.39 0.39,-1.024 0,-1.414c-0.39,-0.39 -1.024,-0.39 -1.414,0zm33.414,8.414l2,-2c0.39,-0.39 0.39,-1.024 0,-1.414c-0.39,-0.39 -1.024,-0.39 -1.414,0l-2,2c-0.39,0.39 -0.39,1.024 0,1.414c0.39,0.39 1.024,0.39 1.414,0zm-34,0l2,-2c0.39,-0.39 0.39,-1.024 0,-1.414c-0.39,-0.39 -1.024,-0.39 -1.414,0l-2,2c-0.39,0.39 -0.39,1.024 0,1.414c0.39,0.39 1.024,0.39 1.414,0zm0.586,-13.414l-12,12c-0.39,0.39 -0.39,1.024 0,1.414c0.39,0.39 1.024,0.39 1.414,0l12,-12c0.39,-0.39 0.39,-1.024 0,-1.414c-0.39,-0.39 -1.024,-0.39 -1.414,0zm34,-5l-14,14c-0.39,0.39 -0.39,1.024 0,1.414c0.39,0.39 1.024,0.39 1.414,0l14,-14c0.39,-0.39 0.39,-1.024 0,-1.414c-0.39,-0.39 -1.024,-0.39 -1.414,0zm-34,0l-14,14c-0.39,0.39 -0.39,1.024 0,1.414c0.39,0.39 1.024,0.39 1.414,0l14,-14c0.39,-0.39 0.39,-1.024 0,-1.414c-0.39,-0.39 -1.024,-0.39 -1.414,0zm0,-5l-14,14c-0.39,0.39 -0.39,1.024 0,1.414c0.39,0.39 1.024,0.39 1.414,0l14,-14c0.39,-0.39 0.39,-1.024 0,-1.414c-0.39,-0.39 -1.024,-0.39 -1.414,0zm34,0l-14,14c-0.39,0.39 -0.39,1.024 0,1.414c0.39,0.39 1.024,0.39 1.414,0l14,-14c0.39,-0.39 0.39,-1.024 0,-1.414c-0.39,-0.39 -1.024,-0.39 -1.414,0zm-5,0l-9,9c-0.39,0.39 -0.39,1.024 0,1.414c0.39,0.39 1.024,0.39 1.414,0l9,-9c0.39,-0.39 0.39,-1.024 0,-1.414c-0.39,-0.39 -1.024,-0.39 -1.414,0zm-34,0l-9,9c-0.39,0.39 -0.39,1.024 0,1.414c0.39,0.39 1.024,0.39 1.414,0l9,-9c0.39,-0.39 0.39,-1.024 0,-1.414c-0.39,-0.39 -1.024,-0.39 -1.414,0zm-5,0l-4,4c-0.39,0.39 -0.39,1.024 0,1.414c0.39,0.39 1.024,0.39 1.414,0l4,-4c0.39,-0.39 0.39,-1.024 0,-1.414c-0.39,-0.39 -1.024,-0.39 -1.414,0zm34,0l-4,4c-0.39,0.39 -0.39,1.024 0,1.414c0.39,0.39 1.024,0.39 1.414,0l4,-4c0.39,-0.39 0.39,-1.024 0,-1.414c-0.39,-0.39 -1.024,-0.39 -1.414,0z"/>
  <path id="svg_11" fill="#fbef57" d="m54,97.5c0,0.256 -0.098,0.512 -0.293,0.707l-2,2c-0.195,0.195 -0.451,0.293 -0.707,0.293c0,0.256 0.098,0.512 0.293,0.707c0.39,0.39 1.024,0.39 1.414,0l2,-2c0.39,-0.39 0.39,-1.024 0,-1.414c-0.195,-0.195 -0.451,-0.293 -0.707,-0.293zm-12,2.414l0,-0.828l-0.707,0.707c-0.367,0.367 -0.389,0.95 -0.065,1.343l0.021,0.024l0.021,0.024l0.018,0.019c0,0 0.005,0.004 0.005,0.004c0.39,0.39 1.024,0.39 1.414,0l12,-12c0.39,-0.39 0.39,-1.024 0,-1.414c-0.195,-0.195 -0.451,-0.293 -0.707,-0.293c0,0.256 -0.098,0.512 -0.293,0.707l-11.707,11.707zm46,-2.414c0,0.256 -0.098,0.512 -0.293,0.707l-2,2c-0.195,0.195 -0.451,0.293 -0.707,0.293c0,0.256 0.098,0.512 0.293,0.707c0.39,0.39 1.024,0.39 1.414,0l2,-2c0.39,-0.39 0.39,-1.024 0,-1.414c-0.195,-0.195 -0.451,-0.293 -0.707,-0.293zm0,-10c0,0.256 -0.098,0.512 -0.293,0.707l-12,12c-0.195,0.195 -0.451,0.293 -0.707,0.293c0,0.256 0.098,0.512 0.293,0.707c0.39,0.39 1.024,0.39 1.414,0l12,-12c0.39,-0.39 0.39,-1.024 0,-1.414c-0.195,-0.195 -0.451,-0.293 -0.707,-0.293zm-34,5c0,0.256 -0.098,0.512 -0.293,0.707l-7,7c-0.195,0.195 -0.451,0.293 -0.707,0.293c0,0.256 0.098,0.512 0.293,0.707c0.39,0.39 1.024,0.39 1.414,0l7,-7c0.39,-0.39 0.39,-1.024 0,-1.414c-0.195,-0.195 -0.451,-0.293 -0.707,-0.293zm34,0c0,0.256 -0.098,0.512 -0.293,0.707l-7,7c-0.195,0.195 -0.451,0.293 -0.707,0.293c0,0.256 0.098,0.512 0.293,0.707c0.39,0.39 1.024,0.39 1.414,0l7,-7c0.39,-0.39 0.39,-1.024 0,-1.414c-0.195,-0.195 -0.451,-0.293 -0.707,-0.293zm-46,2.414l0,-0.828l-2,2l0,0.828l-0.293,0.293c-0.195,0.195 -0.451,0.293 -0.707,0.293c0,0.256 0.098,0.512 0.293,0.707c0.39,0.39 1.024,0.39 1.414,0l14,-14c0.39,-0.39 0.39,-1.024 0,-1.414c-0.195,-0.195 -0.451,-0.293 -0.707,-0.293c0,0.256 -0.098,0.512 -0.293,0.707l-11.707,11.707zm46,-12.414c0,0.256 -0.098,0.512 -0.293,0.707l-14,14c-0.195,0.195 -0.451,0.293 -0.707,0.293c0,0.256 0.098,0.512 0.293,0.707c0.39,0.39 1.024,0.39 1.414,0l14,-14c0.39,-0.39 0.39,-1.024 0,-1.414c-0.195,-0.195 -0.451,-0.293 -0.707,-0.293zm0,-5c0,0.256 -0.098,0.512 -0.293,0.707l-14,14c-0.195,0.195 -0.451,0.293 -0.707,0.293c0,0.256 0.098,0.512 0.293,0.707c0.39,0.39 1.024,0.39 1.414,0l14,-14c0.39,-0.39 0.39,-1.024 0,-1.414c-0.195,-0.195 -0.451,-0.293 -0.707,-0.293zm-46,12.414l0,-0.828l-2,2l0,0.828l-0.293,0.293c-0.195,0.195 -0.451,0.293 -0.707,0.293c0,0.256 0.098,0.512 0.293,0.707c0.198,0.198 0.459,0.296 0.719,0.293c0.252,-0.003 0.503,-0.101 0.695,-0.293l14,-14c0.39,-0.39 0.39,-1.024 0,-1.414c-0.195,-0.195 -0.451,-0.293 -0.707,-0.293c0,0.256 -0.098,0.512 -0.293,0.707l-11.707,11.707zm-1.293,-1.707l9,-9c0.39,-0.39 0.39,-1.024 0,-1.414c-0.195,-0.195 -0.451,-0.293 -0.707,-0.293c0,0.256 -0.098,0.512 -0.293,0.707l-6.707,6.707l0,-0.828l-2,2l0,0.828l-0.293,0.293c-0.195,0.195 -0.451,0.293 -0.707,0.293c0,0.256 0.098,0.512 0.293,0.707c0.198,0.198 0.459,0.296 0.719,0.293c0.252,-0.003 0.503,-0.101 0.695,-0.293zm42.293,-10.707c0,0.256 -0.098,0.512 -0.293,0.707l-9,9c-0.195,0.195 -0.451,0.293 -0.707,0.293c0,0.256 0.098,0.512 0.293,0.707c0.39,0.39 1.024,0.39 1.414,0l9,-9c0.39,-0.39 0.39,-1.024 0,-1.414c-0.195,-0.195 -0.451,-0.293 -0.707,-0.293zm-5,0c0,0.256 -0.098,0.512 -0.293,0.707l-4,4c-0.195,0.195 -0.451,0.293 -0.707,0.293c0,0.256 0.098,0.512 0.293,0.707c0.39,0.39 1.024,0.39 1.414,0l4,-4c0.39,-0.39 0.39,-1.024 0,-1.414c-0.195,-0.195 -0.451,-0.293 -0.707,-0.293zm-36,2.414l0,-0.828l-2,2l0,0.828l-0.293,0.293c-0.195,0.195 -0.451,0.293 -0.707,0.293c0,0.256 0.098,0.512 0.293,0.707c0.198,0.198 0.459,0.296 0.719,0.293c0.252,-0.003 0.503,-0.101 0.695,-0.293l4,-4c0.39,-0.39 0.39,-1.024 0,-1.414c-0.195,-0.195 -0.451,-0.293 -0.707,-0.293c0,0.256 -0.098,0.512 -0.293,0.707l-1.707,1.707zm46,-29.414c0,0.256 -0.098,0.512 -0.293,0.707l-7,7c-0.195,0.195 -0.451,0.293 -0.707,0.293c0,0.256 0.098,0.512 0.293,0.707c0.39,0.39 1.024,0.39 1.414,0l7,-7c0.39,-0.39 0.39,-1.024 0,-1.414c-0.195,-0.195 -0.451,-0.293 -0.707,-0.293zm0,-5c0,0.256 -0.098,0.512 -0.293,0.707l-12,12c-0.195,0.195 -0.451,0.293 -0.707,0.293c0,0.256 0.098,0.512 0.293,0.707c0.39,0.39 1.024,0.39 1.414,0l12,-12c0.39,-0.39 0.39,-1.024 0,-1.414c-0.195,-0.195 -0.451,-0.293 -0.707,-0.293zm-34,5c0,0.256 -0.098,0.512 -0.293,0.707l-7,7c-0.195,0.195 -0.451,0.293 -0.707,0.293c0,0.256 0.098,0.512 0.293,0.707c0.39,0.39 1.024,0.39 1.414,0l7,-7c0.39,-0.39 0.39,-1.024 0,-1.414c-0.195,-0.195 -0.451,-0.293 -0.707,-0.293zm-12,7.414l0,-0.828l-0.707,0.707c-0.367,0.367 -0.389,0.95 -0.065,1.343l0.021,0.024l0.021,0.024l0.018,0.019c0,0 0.005,0.004 0.005,0.004c0.39,0.39 1.024,0.39 1.414,0l12,-12c0.39,-0.39 0.39,-1.024 0,-1.414c-0.195,-0.195 -0.451,-0.293 -0.707,-0.293c0,0.256 -0.098,0.512 -0.293,0.707l-11.707,11.707zm46,-2.414c0,0.256 -0.098,0.512 -0.293,0.707l-2,2c-0.195,0.195 -0.451,0.293 -0.707,0.293c0,0.256 0.098,0.512 0.293,0.707c0.39,0.39 1.024,0.39 1.414,0l2,-2c0.39,-0.39 0.39,-1.024 0,-1.414c-0.195,-0.195 -0.451,-0.293 -0.707,-0.293zm-34,0c0,0.256 -0.098,0.512 -0.293,0.707l-2,2c-0.195,0.195 -0.451,0.293 -0.707,0.293c0,0.256 0.098,0.512 0.293,0.707c0.39,0.39 1.024,0.39 1.414,0l2,-2c0.39,-0.39 0.39,-1.024 0,-1.414c-0.195,-0.195 -0.451,-0.293 -0.707,-0.293zm34,-15c0,0.256 -0.098,0.512 -0.293,0.707l-14,14c-0.195,0.195 -0.451,0.293 -0.707,0.293c0,0.256 0.098,0.512 0.293,0.707c0.39,0.39 1.024,0.39 1.414,0l14,-14c0.39,-0.39 0.39,-1.024 0,-1.414c-0.195,-0.195 -0.451,-0.293 -0.707,-0.293zm-46,12.414l0,-0.828l-2,2l0,0.828l-0.293,0.293c-0.195,0.195 -0.451,0.293 -0.707,0.293c0,0.256 0.098,0.512 0.293,0.707c0.198,0.198 0.459,0.296 0.719,0.293c0.252,-0.003 0.503,-0.101 0.695,-0.293l14,-14c0.39,-0.39 0.39,-1.024 0,-1.414c-0.195,-0.195 -0.451,-0.293 -0.707,-0.293c0,0.256 -0.098,0.512 -0.293,0.707l-11.707,11.707zm0,-5l0,-0.828l-2,2l0,0.828l-0.293,0.293c-0.195,0.195 -0.451,0.293 -0.707,0.293c0,0.256 0.098,0.512 0.293,0.707c0.39,0.39 1.024,0.39 1.414,0l14,-14c0.39,-0.39 0.39,-1.024 0,-1.414c-0.195,-0.195 -0.451,-0.293 -0.707,-0.293c0,0.256 -0.098,0.512 -0.293,0.707l-11.707,11.707zm46,-12.414c0,0.256 -0.098,0.512 -0.293,0.707l-14,14c-0.195,0.195 -0.451,0.293 -0.707,0.293c0,0.256 0.098,0.512 0.293,0.707c0.39,0.39 1.024,0.39 1.414,0l14,-14c0.39,-0.39 0.39,-1.024 0,-1.414c-0.195,-0.195 -0.451,-0.293 -0.707,-0.293zm-5,0c0,0.256 -0.098,0.512 -0.293,0.707l-9,9c-0.195,0.195 -0.451,0.293 -0.707,0.293c0,0.256 0.098,0.512 0.293,0.707c0.39,0.39 1.024,0.39 1.414,0l9,-9c0.39,-0.39 0.39,-1.024 0,-1.414c-0.195,-0.195 -0.451,-0.293 -0.707,-0.293zm-41,7.414l0,-0.828l-2,2l0,0.828l-0.293,0.293c-0.195,0.195 -0.451,0.293 -0.707,0.293c0,0.256 0.098,0.512 0.293,0.707c0.198,0.198 0.459,0.296 0.719,0.293c0.252,-0.003 0.503,-0.101 0.695,-0.293l9,-9c0.39,-0.39 0.39,-1.024 0,-1.414c-0.195,-0.195 -0.451,-0.293 -0.707,-0.293c0,0.256 -0.098,0.512 -0.293,0.707l-6.707,6.707zm0,-5l0,-0.828l-2,2l0,0.828l-0.293,0.293c-0.195,0.195 -0.451,0.293 -0.707,0.293c0,0.256 0.098,0.512 0.293,0.707c0.198,0.198 0.459,0.296 0.719,0.293c0.252,-0.003 0.503,-0.101 0.695,-0.293l4,-4c0.39,-0.39 0.39,-1.024 0,-1.414c-0.195,-0.195 -0.451,-0.293 -0.707,-0.293c0,0.256 -0.098,0.512 -0.293,0.707l-1.707,1.707zm36,-2.414c0,0.256 -0.098,0.512 -0.293,0.707l-4,4c-0.195,0.195 -0.451,0.293 -0.707,0.293c0,0.256 0.098,0.512 0.293,0.707c0.39,0.39 1.024,0.39 1.414,0l4,-4c0.39,-0.39 0.39,-1.024 0,-1.414c-0.195,-0.195 -0.451,-0.293 -0.707,-0.293z"/>
  <path id="svg_12" fill="#fcd935" d="m18,23.5l11,0l0,89c0,3.036 -2.464,5.5 -5.5,5.5c-3.036,0 -5.5,-2.464 -5.5,-5.5l0,-89z"/>
  <path id="svg_13" fill="#fbc02a" d="m18,23.5l11,0l0,89c0,3.036 -2.464,5.5 -5.5,5.5c-2.03,0 -3.805,-1.103 -4.758,-2.742c0.81,0.472 1.753,0.742 2.758,0.742c3.036,0 5.5,-2.464 5.5,-5.5l0,-85l-8.5,0c-0.169,0 -0.337,-0.017 -0.5,-0.051l0,-1.949z"/>
  <path id="svg_14" fill="#fcd935" d="m29,23.5l11,0l0,89c0,3.036 -2.464,5.5 -5.5,5.5c-3.036,0 -5.5,-2.464 -5.5,-5.5l0,-89z"/>
  <path id="svg_15" fill="#fbc02a" d="m29,23.5l11,0l0,89c0,3.036 -2.464,5.5 -5.5,5.5c-2.03,0 -3.805,-1.103 -4.758,-2.742c0.81,0.472 1.753,0.742 2.758,0.742c3.036,0 5.5,-2.464 5.5,-5.5l0,-85l-9,0l0,-2z"/>
  <path id="svg_16" fill="#fcd935" d="m99,23.5l11,0l0,89c0,3.036 -2.464,5.5 -5.5,5.5c-3.036,0 -5.5,-2.464 -5.5,-5.5l0,-89z"/>
  <path id="svg_17" fill="#fbc02a" d="m99,23.5l11,0l0,89c0,3.036 -2.464,5.5 -5.5,5.5c-2.03,0 -3.805,-1.103 -4.758,-2.742c0.81,0.472 1.753,0.742 2.758,0.742c3.036,0 5.5,-2.464 5.5,-5.5l0,-63.526c-1.877,0.664 -3.897,1.026 -6,1.026c-1.022,0 -2.024,-0.085 -3,-0.249l0,-1.778c0.331,0.018 0.664,0.027 1,0.027c2.873,0 5.589,-0.674 8,-1.874l0,-18.626l-9,0l0,-2z"/>
  <path id="svg_18" fill="#fcd935" d="m88,23.5l11,0l0,89c0,3.036 -2.464,5.5 -5.5,5.5c-3.036,0 -5.5,-2.464 -5.5,-5.5l0,-89z"/>
  <path id="svg_19" fill="#fbc02a" d="m88,23.5l11,0l0,89c0,3.036 -2.464,5.5 -5.5,5.5c-2.03,0 -3.805,-1.103 -4.758,-2.742c0.81,0.472 1.753,0.742 2.758,0.742c3.036,0 5.5,-2.464 5.5,-5.5l0,-63.205c-3.424,-0.989 -6.43,-2.969 -8.686,-5.609c2.424,2.073 5.405,3.513 8.686,4.065l0,-20.251l-9,0l0,-2z"/>
  <path id="svg_23" fill="#eeefef" d="m100.95,33.493069c0.14,0.286 0.219,0.609 0.219,0.95c0,1.197 -0.972,2.168 -2.169,2.168c-0.341,0 -0.663,-0.078 -0.95,-0.218c0.352,0.721 1.094,1.218 1.95,1.218c1.197,0 2.169,-0.971 2.169,-2.168c0,-0.857 -0.497,-1.598 -1.219,-1.95zm4.893,-5.732c0.097,0.113 0.191,0.229 0.282,0.346c0.675,0.874 0.514,2.131 -0.36,2.806c-0.673,0.52 -1.574,0.543 -2.261,0.127c0.164,0.16 0.316,0.332 0.456,0.513c0.675,0.873 1.932,1.035 2.805,0.36c0.874,-0.675 1.035,-1.932 0.36,-2.806c-0.38,-0.491 -0.81,-0.943 -1.282,-1.346zm-13.208,3.393c0.13,0.289 0.331,0.551 0.6,0.759c0.873,0.675 2.13,0.513 2.805,-0.36c0.915,-1.184 2.349,-1.949 3.96,-1.949c1.128,0 2.168,0.375 3.005,1.006c-0.015,-0.019 -0.03,-0.038 -0.045,-0.057c-0.915,-1.184 -2.349,-1.949 -3.96,-1.949c-1.611,0 -3.045,0.765 -3.96,1.949c-0.577,0.747 -1.58,0.973 -2.405,0.601zm-4.28,-5.618c0.142,0.316 0.368,0.599 0.672,0.813c0.903,0.635 2.152,0.417 2.787,-0.486c1.81,-2.574 4.803,-4.259 8.186,-4.259c2.506,0 4.797,0.924 6.552,2.449c-1.834,-2.112 -4.538,-3.449 -7.552,-3.449c-3.383,0 -6.376,1.685 -8.186,4.259c-0.561,0.798 -1.601,1.061 -2.459,0.673zm21.03,-4.317c0.384,0.425 0.743,0.873 1.073,1.343c0.635,0.903 0.418,2.152 -0.485,2.787c-0.627,0.44 -1.42,0.47 -2.059,0.146c0.094,0.121 0.185,0.243 0.272,0.368c0.635,0.903 1.884,1.121 2.787,0.486c0.903,-0.635 1.12,-1.884 0.485,-2.787c-0.602,-0.857 -1.298,-1.643 -2.073,-2.343z"/>
  <path id="svg_25" fill="#fcd935" d="m39.957032,23.5l11,0l0,89c0,3.036 -2.464,5.5 -5.5,5.5c-3.036,0 -5.5,-2.464 -5.5,-5.5l0,-89z"/>
  <path id="svg_26" fill="#fbc02a" d="m39.957032,23.5l11,0l0,89c0,3.036 -2.464,5.5 -5.5,5.5c-2.03,0 -3.805,-1.103 -4.758,-2.742c0.81,0.472 1.753,0.742 2.758,0.742c3.036,0 5.5,-2.464 5.5,-5.5l0,-85l-8.5,0c-0.169,0 -0.337,-0.017 -0.5,-0.051l0,-1.949z"/>
  <path id="svg_27" fill="#fcd935" d="m50.840083,23.5l11,0l0,89c0,3.036 -2.464,5.5 -5.5,5.5c-3.036,0 -5.5,-2.464 -5.5,-5.5l0,-89z"/>
  <path id="svg_28" fill="#fbc02a" d="m51.221944,23.5l11,0l0,89c0,3.036 -2.464,5.5 -5.5,5.5c-2.03,0 -3.805,-1.103 -4.758,-2.742c0.81,0.472 1.753,0.742 2.758,0.742c3.036,0 5.5,-2.464 5.5,-5.5l0,-85l-8.5,0c-0.169,0 -0.337,-0.017 -0.5,-0.051l0,-1.949z"/>
  <path id="svg_30" fill="#fcd935" d="m61.723131,23.5l11,0l0,89c0,3.036 -2.464,5.5 -5.5,5.5c-3.036,0 -5.5,-2.464 -5.5,-5.5l0,-89z"/>
  <path id="svg_31" fill="#fbc02a" d="m62.104991,23.5l11,0l0,89c0,3.036 -2.464,5.5 -5.5,5.5c-2.03,0 -3.805,-1.103 -4.758,-2.742c0.81,0.472 1.753,0.742 2.758,0.742c3.036,0 5.5,-2.464 5.5,-5.5l0,-85l-8.5,0c-0.169,0 -0.337,-0.017 -0.5,-0.051l0,-1.949z"/>
  <path id="svg_32" fill="#fcd935" d="m72.41525,23.5l11,0l0,89c0,3.036 -2.464,5.5 -5.5,5.5c-3.036,0 -5.5,-2.464 -5.5,-5.5l0,-89z"/>
  <path id="svg_33" fill="#fbc02a" d="m72.79711,23.5l11,0l0,89c0,3.036 -2.464,5.5 -5.5,5.5c-2.03,0 -3.805,-1.103 -4.758,-2.742c0.81,0.472 1.753,0.742 2.758,0.742c3.036,0 5.5,-2.464 5.5,-5.5l0,-85l-8.5,0c-0.169,0 -0.337,-0.017 -0.5,-0.051l0,-1.949z"/>
  <path id="svg_34" fill="#fcd935" d="m82.725508,23.5l11,0l0,89c0,3.036 -2.464,5.5 -5.5,5.5c-3.036,0 -5.5,-2.464 -5.5,-5.5l0,-89z"/>
  <path id="svg_35" fill="#fbc02a" d="m83.107368,23.5l11,0l0,89c0,3.036 -2.464,5.5 -5.5,5.5c-2.03,0 -3.805,-1.103 -4.758,-2.742c0.81,0.472 1.753,0.742 2.758,0.742c3.036,0 5.5,-2.464 5.5,-5.5l0,-85l-8.5,0c-0.169,0 -0.337,-0.017 -0.5,-0.051l0,-1.949z"/>
  <circle id="svg_20" fill="#41b3e6" r="18" cy="27.809071" cx="100"/>
  <path id="svg_22" fill="#fff" d="m100,33.465c-1.197,0 -2.169,0.971 -2.169,2.169c0,1.197 0.972,2.168 2.169,2.168c1.197,0 2.169,-0.971 2.169,-2.168c0,-1.198 -0.972,-2.169 -2.169,-2.169zm-3.96,-1.721c0.915,-1.184 2.349,-1.949 3.96,-1.949c1.611,0 3.045,0.765 3.96,1.949c0.675,0.873 1.932,1.035 2.805,0.36c0.874,-0.675 1.035,-1.932 0.36,-2.806c-1.646,-2.13 -4.227,-3.503 -7.125,-3.503c-2.898,0 -5.479,1.373 -7.125,3.503c-0.675,0.874 -0.514,2.131 0.36,2.806c0.873,0.675 2.13,0.513 2.805,-0.36zm-4.226,-5.69c1.81,-2.574 4.803,-4.259 8.186,-4.259c3.383,0 6.376,1.685 8.186,4.259c0.635,0.903 1.884,1.121 2.787,0.486c0.903,-0.635 1.12,-1.884 0.485,-2.787c-2.533,-3.603 -6.723,-5.958 -11.458,-5.958c-4.735,0 -8.925,2.355 -11.458,5.958c-0.635,0.903 -0.418,2.152 0.485,2.787c0.903,0.635 2.152,0.417 2.787,-0.486z"/>
  <path id="svg_21" fill="#2898d4" d="m111.686,14.314c3.864,3.302 6.314,8.21 6.314,13.686c0,9.934 -8.066,18 -18,18c-5.476,0 -10.384,-2.45 -13.686,-6.314c3.145,2.689 7.227,4.314 11.686,4.314c9.934,0 18,-8.066 18,-18c0,-4.459 -1.625,-8.541 -4.314,-11.686zm-9.736,20.37c0.14,0.286 0.219,0.609 0.219,0.95c0,1.197 -0.972,2.168 -2.169,2.168c-0.341,0 -0.663,-0.078 -0.95,-0.218c0.352,0.721 1.094,1.218 1.95,1.218c1.197,0 2.169,-0.971 2.169,-2.168c0,-0.857 -0.497,-1.598 -1.219,-1.95zm4.893,-5.732c0.097,0.113 0.191,0.229 0.282,0.346c0.675,0.874 0.514,2.131 -0.36,2.806c-0.673,0.52 -1.574,0.543 -2.261,0.127c0.164,0.16 0.316,0.332 0.456,0.513c0.675,0.873 1.932,1.035 2.805,0.36c0.874,-0.675 1.035,-1.932 0.36,-2.806c-0.38,-0.491 -0.81,-0.943 -1.282,-1.346zm-13.208,3.393c0.13,0.289 0.331,0.551 0.6,0.759c0.873,0.675 2.13,0.513 2.805,-0.36c0.915,-1.184 2.349,-1.949 3.96,-1.949c1.128,0 2.168,0.375 3.005,1.006c-0.015,-0.019 -0.03,-0.038 -0.045,-0.057c-0.915,-1.184 -2.349,-1.949 -3.96,-1.949c-1.611,0 -3.045,0.765 -3.96,1.949c-0.577,0.747 -1.58,0.973 -2.405,0.601zm-4.28,-5.618c0.142,0.316 0.368,0.599 0.672,0.813c0.903,0.635 2.152,0.417 2.787,-0.486c1.81,-2.574 4.803,-4.259 8.186,-4.259c2.506,0 4.797,0.924 6.552,2.449c-1.834,-2.112 -4.538,-3.449 -7.552,-3.449c-3.383,0 -6.376,1.685 -8.186,4.259c-0.561,0.798 -1.601,1.061 -2.459,0.673zm21.03,-4.317c0.384,0.425 0.743,0.873 1.073,1.343c0.635,0.903 0.418,2.152 -0.485,2.787c-0.627,0.44 -1.42,0.47 -2.059,0.146c0.094,0.121 0.185,0.243 0.272,0.368c0.635,0.903 1.884,1.121 2.787,0.486c0.903,-0.635 1.12,-1.884 0.485,-2.787c-0.602,-0.857 -1.298,-1.643 -2.073,-2.343z"/>
 </g>
</svg>