<svg viewBox="0 0 128 128" xml:space="preserve" xmlns="http://www.w3.org/2000/svg" fill-rule="evenodd" clip-rule="evenodd" stroke-linejoin="round" stroke-miterlimit="2"><path d="M44 90c-1.004-8.003-1.962-12.672-6.356-15.507C28.266 68.44 22 57.982 22 46c0-18.765 15.235-34 34-34s34 15.235 34 34c0 11.982-6.21 22.528-15.587 28.581C69.993 77.434 68.919 81.992 68 90v2H44v-2Z" fill="#cfcfcf" class="fill-fcd935"></path><path d="M79.016 20.984C85.767 27.199 90 36.109 90 46c0 11.982-6.21 22.528-15.587 28.581C69.993 77.434 68.919 81.992 68 90v2H44v-2h22v-2c.919-8.008 1.993-12.566 6.413-15.419C81.79 66.528 88 55.982 88 44c0-8.874-3.407-16.959-8.984-23.016ZM30.954 68.862a34.677 34.677 0 0 0 4.69 3.631 10.318 10.318 0 0 1 2.704 2.492c-.224-.17-.459-.334-.704-.492a34.665 34.665 0 0 1-6.69-5.631Zm32.619-39.89A9.954 9.954 0 0 1 66 35.5c0 5.519-4.481 10-10 10a9.96 9.96 0 0 1-6.552-2.448A9.977 9.977 0 0 0 57 46.5c5.519 0 10-4.481 10-10a9.974 9.974 0 0 0-3.333-7.451 1.372 1.372 0 0 0-.094-.077Zm-11.909-.236a1.431 1.431 0 0 1-.425 1.442 7.125 7.125 0 0 0-2.382 5.322 7.13 7.13 0 0 0 2.618 5.525 7.11 7.11 0 0 1-1.618-4.525c0-2.114.921-4.014 2.382-5.322a1.43 1.43 0 0 0-.575-2.442Zm5.714-3.185c.033.12.051.247.051.378v9.523a1.43 1.43 0 0 1-1.807 1.378 1.43 1.43 0 0 0 2.807-.378v-9.523a1.43 1.43 0 0 0-1.051-1.378Z" fill="#c7c7c7" class="fill-fbc02a"></path><path d="M89.052 54c-2.075 8.594-7.417 15.919-14.639 20.581C69.951 77.461 69.007 81.948 68 90v2H44v-2c-1.004-8.003-1.974-12.679-6.356-15.507C30.426 69.834 25.051 62.565 22.959 54h66.093Z" fill="#f6f8f9" class="fill-f6f8f9"></path><path d="M86.503 54h2.549c-.064.263-.13.525-.2.786l-.008.031-.05.183-.055.2-.057.198-.048.167-.015.051-.048.16-.016.055-.049.159-.06.197-.047.146-.022.069-.046.142-.026.08-.047.14-.023.07-.045.133-.042.122-.03.087-.045.127-.034.097-.044.123-.038.103-.04.112-.026.071-.049.131-.043.112-.042.11-.043.111-.045.117-.04.103-.081.201-.037.092-.053.128-.041.1-.052.125-.04.094-.07.166-.019.044-.023.052-.07.161-.039.088-.059.133-.039.088-.069.15-.03.065-.096.207-.035.074-.067.144-.039.081-.071.146-.034.069-.102.208-.026.052-.081.161-.038.075-.075.146-.036.069-.104.2-.007.014-.109.204-.035.066-.081.149-.037.068-.093.168-.023.041-.116.207-.03.052-.089.157-.038.065-.091.155-.03.053-.122.205-.018.031-.106.174-.037.061-.092.15-.036.058-.126.201-.128.203-.035.054-.097.151-.039.059-.109.166-.022.034-.134.199-.028.043-.107.156-.039.058-.105.152-.033.047-.138.197-.014.019-.124.174-.04.055-.105.145-.039.053-.14.192-.145.192-.037.049-.109.144-.043.055-.12.156-.026.033-.148.189-.03.038-.119.149-.044.055-.115.141-.037.047-.153.185-.012.015-.14.167-.044.052-.114.135-.044.051-.145.168-.01.012-.158.18-.041.046-.119.134-.047.054-.128.141-.032.036-.161.175-.034.036-.129.139-.049.053-.122.129-.044.046-.165.172-.012.013-.153.156-.049.05-.122.124-.05.05-.149.148-.019.019-.17.166-.045.045-.127.122-.054.052-.133.126-.04.038-.173.162-.036.034-.138.127-.055.051-.129.116-.05.046-.176.158-.012.01-.166.146-.054.047-.129.112-.056.048-.153.131-.027.023-.181.152-.049.042-.135.111-.059.049-.139.113-.046.038-.184.147-.038.031-.148.117-.06.047-.135.105-.056.043-.187.143-.008.006-.181.137-.058.043-.137.101-.061.045-.158.116-.034.024-.191.138-.052.037-.144.101-.063.045-.145.101-.052.035-.194.134-.038.025-.16.107-.063.043-.142.094-.06.039-.199.13c-1.282.827-2.274 1.788-3.06 2.928-1.922 2.772-2.666 6.615-3.31 12.118L68 90v2H44v-2h22v-2c.919-8.008 1.993-12.566 6.413-15.419C79.067 68.285 84.126 61.728 86.503 54ZM32.091 70.038a34.085 34.085 0 0 1-1.137-1.176 34.677 34.677 0 0 0 4.69 3.631 10.318 10.318 0 0 1 2.704 2.492l-.084-.063-.026-.019-.011-.008-.049-.036-.027-.019-.009-.007-.014-.01-.036-.027-.033-.023-.014-.01-.014-.009-.027-.019-.039-.027-.019-.014-.011-.007-.02-.014-.045-.031-.023-.016-.021-.014-.056-.037-.029-.019-.097-.063-.207-.135-.059-.039-.157-.104-.055-.036-.203-.137-.032-.022-.173-.118-.06-.042-.16-.112-.045-.031-.2-.142-.045-.032-.158-.114-.058-.042-.175-.128-.025-.019-.197-.147-.051-.038-.153-.116-.052-.04-.197-.152-.195-.152-.051-.04-.156-.125-.042-.033-.195-.158-.021-.017-.173-.142-.046-.038-.169-.141-.023-.02-.195-.166-.027-.023-.168-.144-.037-.033-.189-.165-.196-.174-.025-.023-.172-.155-.024-.022-.192-.177-.192-.179-.019-.018-.186-.177-.003-.002-.196-.189-.191-.187-.008-.009ZM43 105v-4h26v4c0 7.175-5.825 13-13 13s-13-5.825-13-13Z" fill="#eeefef" class="fill-eeefef"></path><path d="M67 101h2v4c0 7.175-5.825 13-13 13a12.978 12.978 0 0 1-10.136-4.864A12.94 12.94 0 0 0 54 116c7.175 0 13-5.825 13-13v-2Z" fill="#e0e1e0" class="fill-e0e1e0"></path><path d="M72 100.498A3.498 3.498 0 0 0 68.502 97H43.498A3.498 3.498 0 0 0 40 100.498v.004A3.498 3.498 0 0 0 43.498 104h25.004A3.498 3.498 0 0 0 72 100.502v-.004Z" fill="#eeefef" class="fill-eeefef"></path><path d="M69.765 97.235c.152.392.235.818.235 1.263v.004A3.498 3.498 0 0 1 66.502 102H41.498c-.445 0-.871-.083-1.263-.235A3.498 3.498 0 0 0 43.498 104h25.004A3.498 3.498 0 0 0 72 100.502v-.004a3.498 3.498 0 0 0-2.235-3.263Z" fill="#e0e1e0" class="fill-e0e1e0"></path><path d="M72 93.498A3.498 3.498 0 0 0 68.502 90H43.498A3.498 3.498 0 0 0 40 93.498v.004A3.498 3.498 0 0 0 43.498 97h25.004A3.498 3.498 0 0 0 72 93.502v-.004Z" fill="#eeefef" class="fill-eeefef"></path><path d="M69.765 90.235c.152.392.235.818.235 1.263v.004A3.498 3.498 0 0 1 66.502 95H41.498c-.445 0-.871-.083-1.263-.235A3.498 3.498 0 0 0 43.498 97h25.004A3.498 3.498 0 0 0 72 93.502v-.004a3.498 3.498 0 0 0-2.235-3.263Z" fill="#e0e1e0" class="fill-e0e1e0"></path><circle cx="88" cy="28" r="18" fill="#41b3e6" class="fill-41b3e6"></circle><path d="M99.686 14.314C103.55 17.616 106 22.524 106 28c0 9.934-8.066 18-18 18-5.476 0-10.384-2.45-13.686-6.314A17.924 17.924 0 0 0 86 44c9.934 0 18-8.066 18-18 0-4.459-1.625-8.541-4.314-11.686Zm-9.736 20.37a2.17 2.17 0 0 1-2.9 2.9 2.17 2.17 0 0 0 4.119-.95c0-.857-.497-1.598-1.219-1.95Zm-8.315-2.339a2 2 0 0 0 3.405.399 4.996 4.996 0 0 1 6.965-.943l-.045-.057a4.996 4.996 0 0 0-7.92 0 2.003 2.003 0 0 1-2.405.601Zm13.208-3.393c.097.113.191.229.282.346a2.001 2.001 0 0 1-2.621 2.933c.164.16.316.332.456.513a2 2 0 0 0 3.165-2.446 9.07 9.07 0 0 0-1.282-1.346Zm-17.488-2.225a2.002 2.002 0 0 0 3.459.327A9.993 9.993 0 0 1 89 22.795c2.506 0 4.797.924 6.552 2.449a9.993 9.993 0 0 0-15.738.81 2.002 2.002 0 0 1-2.459.673Zm21.03-4.317c.384.425.743.873 1.073 1.343a2.001 2.001 0 0 1-2.544 2.933c.094.121.185.243.272.368a2.002 2.002 0 0 0 2.787.486 2.001 2.001 0 0 0 .485-2.787 14.01 14.01 0 0 0-2.073-2.343Z" fill="#2898d4" class="fill-2898d4"></path><path d="M60.761 30.178a7.125 7.125 0 0 1 2.382 5.322A7.147 7.147 0 0 1 56 42.643a7.147 7.147 0 0 1-7.143-7.143c0-2.114.921-4.014 2.382-5.322a1.43 1.43 0 0 0-1.906-2.129A9.974 9.974 0 0 0 46 35.5c0 5.519 4.481 10 10 10s10-4.481 10-10a9.974 9.974 0 0 0-3.333-7.451 1.43 1.43 0 0 0-1.906 2.129Zm-6.19-4.249v9.523a1.43 1.43 0 0 0 2.858 0v-9.523a1.43 1.43 0 0 0-2.858 0Z" fill="#999999" class="fill-424243"></path><path d="M62.573 27.972A9.954 9.954 0 0 1 65 34.5c0 5.519-4.481 10-10 10a9.96 9.96 0 0 1-6.552-2.448A9.977 9.977 0 0 0 56 45.5c5.519 0 10-4.481 10-10a9.974 9.974 0 0 0-3.333-7.451 1.372 1.372 0 0 0-.094-.077Zm-11.909-.236a1.431 1.431 0 0 1-.425 1.442 7.125 7.125 0 0 0-2.382 5.322 7.13 7.13 0 0 0 2.618 5.525 7.11 7.11 0 0 1-1.618-4.525c0-2.114.921-4.014 2.382-5.322a1.43 1.43 0 0 0-.575-2.442Zm5.714-3.185c.033.12.051.247.051.378v9.523a1.43 1.43 0 0 1-1.807 1.378 1.43 1.43 0 0 0 2.807-.378v-9.523a1.43 1.43 0 0 0-1.051-1.378Z" fill="#a3a3a3" class="fill-202020"></path><path d="M88 33.465a2.17 2.17 0 1 0 .001 4.339A2.17 2.17 0 0 0 88 33.465Zm-3.96-1.721a4.996 4.996 0 0 1 7.92 0 2 2 0 0 0 3.165-2.446A8.988 8.988 0 0 0 88 25.795a8.988 8.988 0 0 0-7.125 3.503 2.001 2.001 0 0 0 3.165 2.446Zm-4.226-5.69A9.993 9.993 0 0 1 88 21.795a9.993 9.993 0 0 1 8.186 4.259 2.002 2.002 0 0 0 2.787.486 2.001 2.001 0 0 0 .485-2.787A13.984 13.984 0 0 0 88 17.795a13.984 13.984 0 0 0-11.458 5.958 2.001 2.001 0 0 0 .485 2.787 2.002 2.002 0 0 0 2.787-.486Z" fill="#ffffff" class="fill-ffffff"></path><path d="M88.95 33.684a2.17 2.17 0 0 1-2.9 2.9 2.17 2.17 0 0 0 4.119-.95c0-.857-.497-1.598-1.219-1.95Zm4.893-5.732c.097.113.191.229.282.346a2.001 2.001 0 0 1-2.621 2.933c.164.16.316.332.456.513a2 2 0 0 0 3.165-2.446 9.07 9.07 0 0 0-1.282-1.346Zm-13.208 3.393a2 2 0 0 0 3.405.399 4.996 4.996 0 0 1 6.965-.943l-.045-.057a4.996 4.996 0 0 0-7.92 0 2.003 2.003 0 0 1-2.405.601Zm-4.28-5.618a2.002 2.002 0 0 0 3.459.327A9.993 9.993 0 0 1 88 21.795c2.506 0 4.797.924 6.552 2.449a9.993 9.993 0 0 0-15.738.81 2.002 2.002 0 0 1-2.459.673Zm21.03-4.317c.384.425.743.873 1.073 1.343a2.001 2.001 0 0 1-2.544 2.933c.094.121.185.243.272.368a2.002 2.002 0 0 0 2.787.486 2.001 2.001 0 0 0 .485-2.787 14.01 14.01 0 0 0-2.073-2.343Z" fill="#eeefef" class="fill-eeefef"></path></svg>