<?xml version="1.0" ?><!DOCTYPE svg  PUBLIC '-//W3C//DTD SVG 1.1//EN'  'http://www.w3.org/Graphics/SVG/1.1/DTD/svg11.dtd'><svg height="100%" style="fill-rule:evenodd;clip-rule:evenodd;stroke-linejoin:round;stroke-miterlimit:2;" version="1.1" viewBox="0 0 128 128" width="100%" xml:space="preserve" xmlns="http://www.w3.org/2000/svg" xmlns:serif="http://www.serif.com/" xmlns:xlink="http://www.w3.org/1999/xlink"><g id="Icon"/><path d="M44,90c-1.004,-8.003 -1.962,-12.672 -6.356,-15.507c-9.378,-6.053 -15.644,-16.511 -15.644,-28.493c0,-18.765 15.235,-34 34,-34c18.765,-0 34,15.235 34,34c-0,11.982 -6.21,22.528 -15.587,28.581c-4.42,2.853 -5.494,7.411 -6.413,15.419l0,2l-24,0l0,-2Z" style="fill:#fcd935;"/><path d="M79.016,20.984c6.751,6.215 10.984,15.125 10.984,25.016c-0,11.982 -6.21,22.528 -15.587,28.581c-4.42,2.853 -5.494,7.411 -6.413,15.419l0,2l-24,0l0,-2l22,0l-0,-2c0.919,-8.008 1.993,-12.566 6.413,-15.419c9.377,-6.053 15.587,-16.599 15.587,-28.581c-0,-8.874 -3.407,-16.959 -8.984,-23.016Zm-48.062,47.878c1.453,1.339 3.022,2.554 4.69,3.631c1.098,0.708 1.981,1.531 2.704,2.492c-0.224,-0.17 -0.459,-0.334 -0.704,-0.492c-2.464,-1.591 -4.713,-3.485 -6.69,-5.631Zm32.619,-39.89c1.513,1.752 2.427,4.034 2.427,6.528c0,5.519 -4.481,10 -10,10c-2.505,0 -4.796,-0.923 -6.552,-2.448c1.834,2.112 4.538,3.448 7.552,3.448c5.519,0 10,-4.481 10,-10c0,-2.959 -1.287,-5.619 -3.333,-7.451c-0.03,-0.027 -0.062,-0.053 -0.094,-0.077Zm-11.909,-0.236c0.138,0.505 -0.009,1.069 -0.425,1.442c-1.461,1.308 -2.382,3.208 -2.382,5.322c0,2.225 1.02,4.214 2.618,5.525c-1.011,-1.232 -1.618,-2.808 -1.618,-4.525c0,-2.114 0.921,-4.014 2.382,-5.322c0.587,-0.526 0.637,-1.43 0.111,-2.018c-0.19,-0.212 -0.43,-0.354 -0.686,-0.424Zm5.714,-3.185c0.033,0.12 0.051,0.247 0.051,0.378l-0,9.523c-0,0.789 -0.641,1.429 -1.429,1.429c-0.131,-0 -0.258,-0.018 -0.378,-0.051c0.166,0.606 0.72,1.051 1.378,1.051c0.788,-0 1.429,-0.64 1.429,-1.429l-0,-9.523c-0,-0.658 -0.446,-1.213 -1.051,-1.378Z" style="fill:#fbc02a;"/><path d="M89.052,54c-2.075,8.594 -7.417,15.919 -14.639,20.581c-4.462,2.88 -5.406,7.367 -6.413,15.419l-0,2l-24,0l-0,-2c-1.004,-8.003 -1.974,-12.679 -6.356,-15.507c-7.218,-4.659 -12.593,-11.928 -14.685,-20.493l66.093,0Z" style="fill:#f6f8f9;"/><path d="M86.503,54l2.549,0c-0.064,0.263 -0.13,0.525 -0.2,0.786l-0.008,0.031l-0.05,0.183l-0.055,0.2c-0.019,0.066 -0.038,0.132 -0.057,0.198l-0.048,0.167l-0.015,0.051l-0.048,0.16l-0.016,0.055l-0.049,0.159c-0.02,0.066 -0.04,0.131 -0.06,0.197l-0.047,0.146l-0.022,0.069l-0.046,0.142l-0.026,0.08l-0.047,0.14l-0.023,0.07l-0.045,0.133l-0.042,0.122l-0.03,0.087l-0.045,0.127l-0.034,0.097l-0.044,0.123l-0.038,0.103l-0.04,0.112l-0.026,0.071l-0.049,0.131l-0.043,0.112l-0.042,0.11l-0.043,0.111l-0.045,0.117l-0.04,0.103l-0.081,0.201l-0.037,0.092l-0.053,0.128l-0.041,0.1l-0.052,0.125l-0.04,0.094l-0.07,0.166l-0.019,0.044l-0.023,0.052l-0.07,0.161l-0.039,0.088l-0.059,0.133l-0.039,0.088l-0.069,0.15l-0.03,0.065l-0.096,0.207l-0.035,0.074l-0.067,0.144l-0.039,0.081l-0.071,0.146l-0.034,0.069l-0.102,0.208l-0.026,0.052l-0.081,0.161l-0.038,0.075l-0.075,0.146l-0.036,0.069l-0.104,0.2l-0.007,0.014l-0.109,0.204l-0.035,0.066l-0.081,0.149l-0.037,0.068l-0.093,0.168l-0.023,0.041l-0.116,0.207l-0.03,0.052l-0.089,0.157l-0.038,0.065l-0.091,0.155l-0.03,0.053l-0.122,0.205l-0.018,0.031l-0.106,0.174l-0.037,0.061l-0.092,0.15l-0.036,0.058l-0.126,0.201l-0.128,0.203l-0.035,0.054l-0.097,0.151l-0.039,0.059l-0.109,0.166l-0.022,0.034l-0.134,0.199l-0.028,0.043l-0.107,0.156l-0.039,0.058l-0.105,0.152l-0.033,0.047l-0.138,0.197l-0.014,0.019l-0.124,0.174l-0.04,0.055l-0.105,0.145l-0.039,0.053l-0.14,0.192l-0.145,0.192l-0.037,0.049l-0.109,0.144l-0.043,0.055l-0.12,0.156l-0.026,0.033l-0.148,0.189l-0.03,0.038l-0.119,0.149l-0.044,0.055l-0.115,0.141l-0.037,0.047l-0.153,0.185l-0.012,0.015l-0.14,0.167l-0.044,0.052l-0.114,0.135l-0.044,0.051l-0.145,0.168l-0.01,0.012l-0.158,0.18l-0.041,0.046l-0.119,0.134l-0.047,0.054l-0.128,0.141l-0.032,0.036l-0.161,0.175l-0.034,0.036l-0.129,0.139l-0.049,0.053l-0.122,0.129l-0.044,0.046l-0.165,0.172l-0.012,0.013l-0.153,0.156l-0.049,0.05l-0.122,0.124l-0.05,0.05l-0.149,0.148l-0.019,0.019l-0.17,0.166l-0.045,0.045l-0.127,0.122l-0.054,0.052l-0.133,0.126l-0.04,0.038l-0.173,0.162l-0.036,0.034l-0.138,0.127l-0.055,0.051l-0.129,0.116l-0.05,0.046l-0.176,0.158l-0.012,0.01l-0.166,0.146l-0.054,0.047l-0.129,0.112l-0.056,0.048l-0.153,0.131l-0.027,0.023l-0.181,0.152l-0.049,0.042l-0.135,0.111l-0.059,0.049l-0.139,0.113l-0.046,0.038l-0.184,0.147l-0.038,0.031l-0.148,0.117l-0.06,0.047l-0.135,0.105l-0.056,0.043l-0.187,0.143l-0.008,0.006l-0.181,0.137l-0.058,0.043l-0.137,0.101l-0.061,0.045l-0.158,0.116l-0.034,0.024l-0.191,0.138l-0.052,0.037l-0.144,0.101l-0.063,0.045l-0.145,0.101l-0.052,0.035l-0.194,0.134l-0.038,0.025l-0.16,0.107l-0.063,0.043l-0.142,0.094l-0.06,0.039l-0.199,0.13c-1.282,0.827 -2.274,1.788 -3.06,2.928c-1.922,2.772 -2.666,6.615 -3.31,12.118l-0.043,0.373l0,2l-24,-0l0,-2l22,-0l0,-2c0.919,-8.008 1.993,-12.566 6.413,-15.419c6.654,-4.296 11.713,-10.853 14.09,-18.581Zm-54.412,16.038c-0.389,-0.383 -0.767,-0.775 -1.137,-1.176c1.453,1.339 3.022,2.554 4.69,3.631c1.098,0.708 1.981,1.531 2.704,2.492l-0.084,-0.063l-0.026,-0.019l-0.011,-0.008l-0.049,-0.036l-0.027,-0.019l-0.009,-0.007l-0.014,-0.01l-0.036,-0.027l-0.033,-0.023l-0.014,-0.01l-0.014,-0.009l-0.027,-0.019l-0.039,-0.027l-0.019,-0.014l-0.011,-0.007l-0.02,-0.014l-0.045,-0.031l-0.023,-0.016l-0.021,-0.014l-0.056,-0.037l-0.029,-0.019c-0.032,-0.021 -0.065,-0.042 -0.097,-0.063l-0.207,-0.135l-0.059,-0.039l-0.157,-0.104l-0.055,-0.036l-0.203,-0.137l-0.032,-0.022l-0.173,-0.118l-0.06,-0.042l-0.16,-0.112l-0.045,-0.031l-0.2,-0.142l-0.045,-0.032l-0.158,-0.114l-0.058,-0.042l-0.175,-0.128l-0.025,-0.019l-0.197,-0.147l-0.051,-0.038l-0.153,-0.116l-0.052,-0.04l-0.197,-0.152l-0.195,-0.152l-0.051,-0.04l-0.156,-0.125l-0.042,-0.033l-0.195,-0.158l-0.021,-0.017l-0.173,-0.142l-0.046,-0.038l-0.169,-0.141l-0.023,-0.02l-0.195,-0.166l-0.027,-0.023l-0.168,-0.144l-0.037,-0.033l-0.189,-0.165l-0.196,-0.174l-0.025,-0.023l-0.172,-0.155l-0.024,-0.022l-0.192,-0.177l-0.192,-0.179l-0.019,-0.018l-0.186,-0.177l-0.003,-0.002l-0.196,-0.189l-0.191,-0.187l-0.008,-0.009Z" style="fill:#eeefef;"/><path d="M43,105c0,-0 0,-4 0,-4l26,0l0,4c0,7.175 -5.825,13 -13,13c-7.175,-0 -13,-5.825 -13,-13Z" style="fill:#eeefef;"/><path d="M67,101l2,0l0,4c0,7.175 -5.825,13 -13,13c-4.096,-0 -7.752,-1.899 -10.136,-4.864c2.227,1.791 5.057,2.864 8.136,2.864c7.175,-0 13,-5.825 13,-13l0,-2Z" style="fill:#e0e1e0;"/><path d="M72,100.498c-0,-1.932 -1.566,-3.498 -3.498,-3.498c-6.155,-0 -18.849,-0 -25.004,-0c-1.932,0 -3.498,1.566 -3.498,3.498c-0,0.001 -0,0.003 -0,0.004c0,1.932 1.566,3.498 3.498,3.498c6.155,-0 18.849,-0 25.004,-0c1.932,-0 3.498,-1.566 3.498,-3.498c0,-0.001 0,-0.003 0,-0.004Z" style="fill:#eeefef;"/><path d="M69.765,97.235c0.152,0.392 0.235,0.818 0.235,1.263c0,0.001 0,0.003 0,0.004c-0,1.932 -1.566,3.498 -3.498,3.498c-6.155,-0 -18.849,-0 -25.004,-0c-0.445,-0 -0.871,-0.083 -1.263,-0.235c0.506,1.308 1.776,2.235 3.263,2.235c6.155,-0 18.849,-0 25.004,-0c1.932,-0 3.498,-1.566 3.498,-3.498c0,-0.001 0,-0.003 0,-0.004c-0,-1.487 -0.927,-2.757 -2.235,-3.263Z" style="fill:#e0e1e0;"/><path d="M72,93.498c-0,-1.932 -1.566,-3.498 -3.498,-3.498c-6.155,-0 -18.849,-0 -25.004,-0c-1.932,0 -3.498,1.566 -3.498,3.498c-0,0.001 -0,0.003 -0,0.004c0,1.932 1.566,3.498 3.498,3.498c6.155,-0 18.849,-0 25.004,-0c1.932,-0 3.498,-1.566 3.498,-3.498c0,-0.001 0,-0.003 0,-0.004Z" style="fill:#eeefef;"/><path d="M69.765,90.235c0.152,0.392 0.235,0.818 0.235,1.263c0,0.001 0,0.003 0,0.004c-0,1.932 -1.566,3.498 -3.498,3.498c-6.155,-0 -18.849,-0 -25.004,-0c-0.445,-0 -0.871,-0.083 -1.263,-0.235c0.506,1.308 1.776,2.235 3.263,2.235c6.155,-0 18.849,-0 25.004,-0c1.932,-0 3.498,-1.566 3.498,-3.498c0,-0.001 0,-0.003 0,-0.004c-0,-1.487 -0.927,-2.757 -2.235,-3.263Z" style="fill:#e0e1e0;"/><circle cx="88" cy="28" r="18" style="fill:#41b3e6;"/><path d="M99.686,14.314c3.864,3.302 6.314,8.21 6.314,13.686c0,9.934 -8.066,18 -18,18c-5.476,0 -10.384,-2.45 -13.686,-6.314c3.145,2.689 7.227,4.314 11.686,4.314c9.934,0 18,-8.066 18,-18c0,-4.459 -1.625,-8.541 -4.314,-11.686Zm-9.736,20.37c0.14,0.286 0.219,0.609 0.219,0.95c-0,1.197 -0.972,2.168 -2.169,2.168c-0.341,0 -0.663,-0.078 -0.95,-0.218c0.352,0.721 1.094,1.218 1.95,1.218c1.197,0 2.169,-0.971 2.169,-2.168c-0,-0.857 -0.497,-1.598 -1.219,-1.95Zm-8.315,-2.339c0.13,0.289 0.331,0.551 0.6,0.759c0.873,0.675 2.13,0.513 2.805,-0.36c0.915,-1.184 2.349,-1.949 3.96,-1.949c1.128,0 2.168,0.375 3.005,1.006c-0.015,-0.019 -0.03,-0.038 -0.045,-0.057c-0.915,-1.184 -2.349,-1.949 -3.96,-1.949c-1.611,0 -3.045,0.765 -3.96,1.949c-0.577,0.747 -1.58,0.973 -2.405,0.601Zm13.208,-3.393c0.097,0.113 0.191,0.229 0.282,0.346c0.675,0.874 0.514,2.131 -0.36,2.806c-0.673,0.52 -1.574,0.543 -2.261,0.127c0.164,0.16 0.316,0.332 0.456,0.513c0.675,0.873 1.932,1.035 2.805,0.36c0.874,-0.675 1.035,-1.932 0.36,-2.806c-0.38,-0.491 -0.81,-0.943 -1.282,-1.346Zm-17.488,-2.225c0.142,0.316 0.368,0.599 0.672,0.813c0.903,0.635 2.152,0.417 2.787,-0.486c1.81,-2.574 4.803,-4.259 8.186,-4.259c2.506,0 4.797,0.924 6.552,2.449c-1.834,-2.112 -4.538,-3.449 -7.552,-3.449c-3.383,0 -6.376,1.685 -8.186,4.259c-0.561,0.798 -1.601,1.061 -2.459,0.673Zm21.03,-4.317c0.384,0.425 0.743,0.873 1.073,1.343c0.635,0.903 0.418,2.152 -0.485,2.787c-0.627,0.44 -1.42,0.47 -2.059,0.146c0.094,0.121 0.185,0.243 0.272,0.368c0.635,0.903 1.884,1.121 2.787,0.486c0.903,-0.635 1.12,-1.884 0.485,-2.787c-0.602,-0.857 -1.298,-1.643 -2.073,-2.343Z" style="fill:#2898d4;"/><path d="M60.761,30.178c1.461,1.308 2.382,3.208 2.382,5.322c-0,3.942 -3.201,7.143 -7.143,7.143c-3.942,-0 -7.143,-3.201 -7.143,-7.143c0,-2.114 0.921,-4.014 2.382,-5.322c0.587,-0.526 0.637,-1.43 0.111,-2.018c-0.526,-0.587 -1.43,-0.637 -2.017,-0.111c-2.046,1.832 -3.333,4.492 -3.333,7.451c0,5.519 4.481,10 10,10c5.519,0 10,-4.481 10,-10c0,-2.959 -1.287,-5.619 -3.333,-7.451c-0.587,-0.526 -1.491,-0.476 -2.017,0.111c-0.526,0.588 -0.476,1.492 0.111,2.018Zm-6.19,-4.249l0,9.523c0,0.789 0.641,1.429 1.429,1.429c0.788,-0 1.429,-0.64 1.429,-1.429l-0,-9.523c-0,-0.789 -0.641,-1.429 -1.429,-1.429c-0.788,0 -1.429,0.64 -1.429,1.429Z" style="fill:#424243;"/><path d="M62.573,27.972c1.513,1.752 2.427,4.034 2.427,6.528c0,5.519 -4.481,10 -10,10c-2.505,0 -4.796,-0.923 -6.552,-2.448c1.834,2.112 4.538,3.448 7.552,3.448c5.519,0 10,-4.481 10,-10c0,-2.959 -1.287,-5.619 -3.333,-7.451c-0.03,-0.027 -0.062,-0.053 -0.094,-0.077Zm-11.909,-0.236c0.138,0.505 -0.009,1.069 -0.425,1.442c-1.461,1.308 -2.382,3.208 -2.382,5.322c0,2.225 1.02,4.214 2.618,5.525c-1.011,-1.232 -1.618,-2.808 -1.618,-4.525c0,-2.114 0.921,-4.014 2.382,-5.322c0.587,-0.526 0.637,-1.43 0.111,-2.018c-0.19,-0.212 -0.43,-0.354 -0.686,-0.424Zm5.714,-3.185c0.033,0.12 0.051,0.247 0.051,0.378l-0,9.523c-0,0.789 -0.641,1.429 -1.429,1.429c-0.131,-0 -0.258,-0.018 -0.378,-0.051c0.166,0.606 0.72,1.051 1.378,1.051c0.788,-0 1.429,-0.64 1.429,-1.429l-0,-9.523c-0,-0.658 -0.446,-1.213 -1.051,-1.378Z" style="fill:#202020;"/><path d="M88,33.465c-1.197,-0 -2.169,0.971 -2.169,2.169c0,1.197 0.972,2.168 2.169,2.168c1.197,0 2.169,-0.971 2.169,-2.168c-0,-1.198 -0.972,-2.169 -2.169,-2.169Zm-3.96,-1.721c0.915,-1.184 2.349,-1.949 3.96,-1.949c1.611,0 3.045,0.765 3.96,1.949c0.675,0.873 1.932,1.035 2.805,0.36c0.874,-0.675 1.035,-1.932 0.36,-2.806c-1.646,-2.13 -4.227,-3.503 -7.125,-3.503c-2.898,0 -5.479,1.373 -7.125,3.503c-0.675,0.874 -0.514,2.131 0.36,2.806c0.873,0.675 2.13,0.513 2.805,-0.36Zm-4.226,-5.69c1.81,-2.574 4.803,-4.259 8.186,-4.259c3.383,0 6.376,1.685 8.186,4.259c0.635,0.903 1.884,1.121 2.787,0.486c0.903,-0.635 1.12,-1.884 0.485,-2.787c-2.533,-3.603 -6.723,-5.958 -11.458,-5.958c-4.735,0 -8.925,2.355 -11.458,5.958c-0.635,0.903 -0.418,2.152 0.485,2.787c0.903,0.635 2.152,0.417 2.787,-0.486Z" style="fill:#fff;"/><path d="M88.95,33.684c0.14,0.286 0.219,0.609 0.219,0.95c-0,1.197 -0.972,2.168 -2.169,2.168c-0.341,0 -0.663,-0.078 -0.95,-0.218c0.352,0.721 1.094,1.218 1.95,1.218c1.197,0 2.169,-0.971 2.169,-2.168c-0,-0.857 -0.497,-1.598 -1.219,-1.95Zm4.893,-5.732c0.097,0.113 0.191,0.229 0.282,0.346c0.675,0.874 0.514,2.131 -0.36,2.806c-0.673,0.52 -1.574,0.543 -2.261,0.127c0.164,0.16 0.316,0.332 0.456,0.513c0.675,0.873 1.932,1.035 2.805,0.36c0.874,-0.675 1.035,-1.932 0.36,-2.806c-0.38,-0.491 -0.81,-0.943 -1.282,-1.346Zm-13.208,3.393c0.13,0.289 0.331,0.551 0.6,0.759c0.873,0.675 2.13,0.513 2.805,-0.36c0.915,-1.184 2.349,-1.949 3.96,-1.949c1.128,0 2.168,0.375 3.005,1.006c-0.015,-0.019 -0.03,-0.038 -0.045,-0.057c-0.915,-1.184 -2.349,-1.949 -3.96,-1.949c-1.611,0 -3.045,0.765 -3.96,1.949c-0.577,0.747 -1.58,0.973 -2.405,0.601Zm-4.28,-5.618c0.142,0.316 0.368,0.599 0.672,0.813c0.903,0.635 2.152,0.417 2.787,-0.486c1.81,-2.574 4.803,-4.259 8.186,-4.259c2.506,0 4.797,0.924 6.552,2.449c-1.834,-2.112 -4.538,-3.449 -7.552,-3.449c-3.383,0 -6.376,1.685 -8.186,4.259c-0.561,0.798 -1.601,1.061 -2.459,0.673Zm21.03,-4.317c0.384,0.425 0.743,0.873 1.073,1.343c0.635,0.903 0.418,2.152 -0.485,2.787c-0.627,0.44 -1.42,0.47 -2.059,0.146c0.094,0.121 0.185,0.243 0.272,0.368c0.635,0.903 1.884,1.121 2.787,0.486c0.903,-0.635 1.12,-1.884 0.485,-2.787c-0.602,-0.857 -1.298,-1.643 -2.073,-2.343Z" style="fill:#eeefef;"/></svg>