<svg viewBox="0 0 128 128" xml:space="preserve" xmlns="http://www.w3.org/2000/svg" fill-rule="evenodd" clip-rule="evenodd" stroke-linejoin="round" stroke-miterlimit="2"><path d="M62 92.535h-4l-2 14h8l-2-14Z" fill="#424243" class="fill-424243"></path><path d="m60.571 94.535-.285-2H62l2 14h-8l.076-.535h6.133l-1.352-9.465h-3.428l.285-2h2.857Z" fill="#202020" class="fill-202020"></path><path d="M90 110.038c0-.864-.635-1.597-1.49-1.72-4.819-.688-20.155-2.783-28.51-2.783s-23.691 2.095-28.51 2.784a1.738 1.738 0 0 0-1.49 1.719v.003a1.422 1.422 0 0 0 1.492 1.422c4.822-.23 20.154-.928 28.508-.928s23.686.698 28.508.928A1.422 1.422 0 0 0 90 110.041v-.003Z" fill="#616262" class="fill-616262"></path><path d="M87.985 108.244a1.42 1.42 0 0 1-1.477 1.219c-4.822-.23-20.154-.928-28.508-.928-8.025 0-22.491.644-27.891.899a1.716 1.716 0 0 0-.109.604v.003a1.422 1.422 0 0 0 1.492 1.422c4.822-.23 20.154-.928 28.508-.928s23.686.698 28.508.928A1.422 1.422 0 0 0 90 110.041v-.003c0-.864-.635-1.597-1.49-1.72l-.525-.074Z" fill="#424243" class="fill-424243"></path><path d="M110 39.535a4 4 0 0 0-4-4H14a4 4 0 0 0-4 4v51a3.998 3.998 0 0 0 4 4h92a3.999 3.999 0 0 0 4-4v-51Z" fill="#616262" class="fill-616262"></path><path d="M108 50.662V37.535a4 4 0 0 0-.354-1.645A3.997 3.997 0 0 1 110 39.535v51a3.998 3.998 0 0 1-4 4H14a3.999 3.999 0 0 1-3.646-2.354 4.007 4.007 0 0 0 1.646.354h93c1.061 0 1.911.006 2.452-.535.541-.541.548-1.404.548-2.465V53.51a17.959 17.959 0 0 1-6 1.025c-5.476 0-10.384-2.45-13.686-6.313A17.923 17.923 0 0 0 100 52.535c2.873 0 5.589-.674 8-1.873Zm-2.065 38.403A1.503 1.503 0 0 1 104.5 91h-8c-.149 0-.296-.022-.435-.065A1.501 1.501 0 0 0 97.5 92h8a1.503 1.503 0 0 0 1.5-1.5 1.503 1.503 0 0 0-1.065-1.435Zm-91.478-2.604A2.001 2.001 0 0 1 13 84.535v-44a2 2 0 0 1 2-2h90a2 2 0 0 0-2-2H14c-1.411 0-3 1.554-3 2.965v43.834c0 1.56 2.019 2.986 3.457 3.127Z" fill="#424243" class="fill-424243"></path><path d="M107 40.535a2 2 0 0 0-2-2H15a2 2 0 0 0-2 2v44a2 2 0 0 0 2 2h90a2 2 0 0 0 2-2v-44Z" fill="#000000" class="fill-f6f8f9"></path><path d="M15 86.535v-44a2 2 0 0 1 2-2h90a2 2 0 0 0-2-2H15a2 2 0 0 0-2 2v44a2 2 0 0 0 2 2Zm92-32.704a18.01 18.01 0 0 1-5 .704c-5.476 0-10.384-2.45-13.686-6.313A17.923 17.923 0 0 0 100 52.535c2.482 0 4.848-.503 7-1.414v2.71Z" fill="#000000" class="fill-eeefef"></path><path d="M106 89.5a1.503 1.503 0 0 0-1.5-1.5h-8a1.503 1.503 0 0 0-1.5 1.5 1.503 1.503 0 0 0 1.5 1.5h8a1.503 1.503 0 0 0 1.5-1.5Z" fill="#83d3f6" class="fill-83d3f6"></path><path d="M104.935 88.065A1.503 1.503 0 0 1 103.5 90h-8c-.149 0-.296-.022-.435-.065A1.501 1.501 0 0 0 96.5 91h8a1.503 1.503 0 0 0 1.5-1.5 1.503 1.503 0 0 0-1.065-1.435Z" fill="#56c2ef" class="fill-56c2ef"></path><path d="m99.939 43.475-36 36a1.501 1.501 0 0 0 2.122 2.121l36-36a1.501 1.501 0 0 0-2.122-2.121Zm-19 0-36 36a1.501 1.501 0 0 0 2.122 2.121l36-36a1.501 1.501 0 0 0-2.122-2.121Zm-19 0-36 36a1.501 1.501 0 0 0 2.122 2.121l36-36a1.501 1.501 0 0 0-2.122-2.121Zm38 19-17 17a1.501 1.501 0 0 0 2.122 2.121l17-17a1.501 1.501 0 0 0-2.122-2.121Zm-57-19-25 25a1.501 1.501 0 0 0 2.122 2.121l25-25a1.501 1.501 0 0 0-2.122-2.121Zm-19 0-6 6a1.501 1.501 0 0 0 2.122 2.121l6-6a1.501 1.501 0 0 0-2.122-2.121Z" fill="#000000" class="fill-fbef57"></path><path d="m94.109 51.548 6.952-6.952c.404-.405.529-.984.374-1.496a1.501 1.501 0 0 1 .626 2.496l-36 36a1.502 1.502 0 0 1-2.496-.625 1.5 1.5 0 0 0 1.496-.375l28.279-28.28a18.082 18.082 0 0 1-1.392-.85l.561-.561a18.1 18.1 0 0 0 1.6.643ZM82.435 43.1c.155.512.03 1.091-.374 1.496l-36 36a1.5 1.5 0 0 1-1.496.375 1.502 1.502 0 0 0 2.496.625l36-36a1.501 1.501 0 0 0-.626-2.496Zm-19 0c.155.512.03 1.091-.374 1.496l-36 36a1.5 1.5 0 0 1-1.496.375 1.502 1.502 0 0 0 2.496.625l36-36a1.501 1.501 0 0 0-.626-2.496Zm38 19c.155.512.03 1.091-.374 1.496l-17 17a1.5 1.5 0 0 1-1.496.375 1.502 1.502 0 0 0 2.496.625l17-17a1.501 1.501 0 0 0-.626-2.496Zm-57-19c.155.512.03 1.091-.374 1.496l-25 25a1.5 1.5 0 0 1-1.496.375 1.502 1.502 0 0 0 2.496.625l25-25a1.501 1.501 0 0 0-.626-2.496Zm-19 0c.155.512.03 1.091-.374 1.496l-6 6a1.5 1.5 0 0 1-1.496.375 1.502 1.502 0 0 0 2.496.625l6-6a1.501 1.501 0 0 0-.626-2.496Z" fill="#000000" class="fill-fcd935"></path><circle cx="100" cy="34.535" r="18" fill="#41b3e6" class="fill-41b3e6"></circle><path d="M111.686 20.849c3.864 3.302 6.314 8.21 6.314 13.686 0 9.935-8.066 18-18 18-5.476 0-10.384-2.45-13.686-6.313A17.923 17.923 0 0 0 98 50.535c9.934 0 18-8.065 18-18 0-4.458-1.625-8.54-4.314-11.686Zm-9.736 20.37a2.17 2.17 0 0 1-2.9 2.9 2.17 2.17 0 1 0 2.9-2.9Zm4.893-5.732c.097.113.191.229.282.347a2 2 0 0 1-2.621 2.933c.164.16.316.331.456.512a2 2 0 0 0 3.165-2.445 9.078 9.078 0 0 0-1.282-1.347ZM93.635 38.88a2 2 0 0 0 3.405.399 4.996 4.996 0 0 1 6.965-.943A4.996 4.996 0 0 0 100 36.331a4.996 4.996 0 0 0-3.96 1.948 2 2 0 0 1-2.405.601Zm16.75-9.935c.384.425.743.874 1.073 1.344a2 2 0 0 1-2.544 2.932c.094.121.185.244.272.369a2 2 0 0 0 3.272-2.301 14.056 14.056 0 0 0-2.073-2.344Zm-21.03 4.317a2.002 2.002 0 0 0 3.459.328A9.99 9.99 0 0 1 101 29.331c2.506 0 4.797.924 6.552 2.449A9.978 9.978 0 0 0 100 28.331a9.99 9.99 0 0 0-8.186 4.259 2.002 2.002 0 0 1-2.459.672Z" fill="#2898d4" class="fill-2898d4"></path><path d="M100 40a2.17 2.17 0 0 0 0 4.338A2.17 2.17 0 0 0 100 40Zm-3.96-1.721a4.996 4.996 0 0 1 3.96-1.948c1.611 0 3.045.764 3.96 1.948a2 2 0 0 0 3.165-2.445A8.985 8.985 0 0 0 100 32.331a8.985 8.985 0 0 0-7.125 3.503 2 2 0 0 0 3.165 2.445Zm-4.226-5.689A9.99 9.99 0 0 1 100 28.331a9.99 9.99 0 0 1 8.186 4.259 2 2 0 0 0 3.272-2.301A13.984 13.984 0 0 0 100 24.331a13.984 13.984 0 0 0-11.458 5.958 2 2 0 0 0 3.272 2.301Z" fill="#ffffff" class="fill-ffffff"></path><path d="M100.95 40.219a2.17 2.17 0 0 1-2.9 2.9 2.17 2.17 0 1 0 2.9-2.9Zm4.893-5.732c.097.113.191.229.282.347a2 2 0 0 1-2.621 2.933c.164.16.316.331.456.512a2 2 0 0 0 3.165-2.445 9.078 9.078 0 0 0-1.282-1.347ZM92.635 37.88a2 2 0 0 0 3.405.399 4.996 4.996 0 0 1 6.965-.943A4.996 4.996 0 0 0 99 35.331a4.996 4.996 0 0 0-3.96 1.948 2 2 0 0 1-2.405.601Zm16.75-9.935c.384.425.743.874 1.073 1.344a2 2 0 0 1-2.544 2.932c.094.121.185.244.272.369a2 2 0 0 0 3.272-2.301 14.056 14.056 0 0 0-2.073-2.344Zm-21.03 4.317a2.002 2.002 0 0 0 3.459.328A9.99 9.99 0 0 1 100 28.331c2.506 0 4.797.924 6.552 2.449A9.978 9.978 0 0 0 99 27.331a9.99 9.99 0 0 0-8.186 4.259 2.002 2.002 0 0 1-2.459.672Z" fill="#000000" class="fill-eeefef"></path></svg>