<?xml version="1.0" ?><!DOCTYPE svg  PUBLIC '-//W3C//DTD SVG 1.1//EN'  'http://www.w3.org/Graphics/SVG/1.1/DTD/svg11.dtd'><svg height="100%" style="fill-rule:evenodd;clip-rule:evenodd;stroke-linejoin:round;stroke-miterlimit:2;" version="1.1" viewBox="0 0 128 128" width="100%" xml:space="preserve" xmlns="http://www.w3.org/2000/svg" xmlns:serif="http://www.serif.com/" xmlns:xlink="http://www.w3.org/1999/xlink"><g id="Icon"/><path d="M62,92.535l-4,0l-2,14l8,0l-2,-14Z" style="fill:#424243;"/><path d="M60.571,94.535l-0.285,-2l1.714,0l2,14l-8,0l0.076,-0.535l6.133,0l-1.352,-9.465l-3.428,0l0.285,-2l2.857,0Z" style="fill:#202020;"/><path d="M90,110.038c0,-0.864 -0.635,-1.597 -1.49,-1.72c-4.819,-0.688 -20.155,-2.783 -28.51,-2.783c-8.355,0 -23.691,2.095 -28.51,2.784c-0.855,0.123 -1.49,0.856 -1.49,1.719c0,0.001 0,0.002 0,0.003c0,0.389 0.16,0.762 0.442,1.03c0.282,0.269 0.661,0.411 1.05,0.392c4.822,-0.23 20.154,-0.928 28.508,-0.928c8.354,0 23.686,0.698 28.508,0.928c0.389,0.019 0.768,-0.123 1.05,-0.392c0.282,-0.268 0.442,-0.641 0.442,-1.03c0,-0.001 0,-0.002 0,-0.003Z" style="fill:#616262;"/><path d="M87.985,108.244c-0.045,0.314 -0.194,0.606 -0.427,0.827c-0.282,0.269 -0.661,0.411 -1.05,0.392c-4.822,-0.23 -20.154,-0.928 -28.508,-0.928c-8.025,0 -22.491,0.644 -27.891,0.899c-0.071,0.189 -0.109,0.393 -0.109,0.604c0,0.001 0,0.002 0,0.003c0,0.389 0.16,0.762 0.442,1.03c0.282,0.269 0.661,0.411 1.05,0.392c4.822,-0.23 20.154,-0.928 28.508,-0.928c8.354,0 23.686,0.698 28.508,0.928c0.389,0.019 0.768,-0.123 1.05,-0.392c0.282,-0.268 0.442,-0.641 0.442,-1.03c0,-0.001 0,-0.002 0,-0.003c0,-0.864 -0.635,-1.597 -1.49,-1.72c-0.163,-0.023 -0.338,-0.048 -0.525,-0.074Z" style="fill:#424243;"/><path d="M110,39.535c0,-1.06 -0.421,-2.078 -1.172,-2.828c-0.75,-0.75 -1.767,-1.172 -2.828,-1.172l-92,0c-1.061,0 -2.078,0.422 -2.828,1.172c-0.751,0.75 -1.172,1.768 -1.172,2.828l0,51c-0,1.061 0.421,2.079 1.172,2.829c0.75,0.75 1.767,1.171 2.828,1.171l92,0c1.061,0 2.078,-0.421 2.828,-1.171c0.751,-0.75 1.172,-1.768 1.172,-2.829l0,-51Z" style="fill:#616262;"/><path d="M108,50.662l0,-13.127c0,-0.573 -0.123,-1.133 -0.354,-1.645c0.436,0.196 0.837,0.472 1.182,0.817c0.751,0.75 1.172,1.768 1.172,2.828l0,51c0,1.061 -0.421,2.079 -1.172,2.829c-0.75,0.75 -1.767,1.171 -2.828,1.171l-92,0c-1.061,0 -2.078,-0.421 -2.828,-1.171c-0.345,-0.345 -0.621,-0.747 -0.818,-1.183c0.513,0.231 1.073,0.354 1.646,0.354l93,0c1.061,0 1.911,0.006 2.452,-0.535c0.541,-0.541 0.548,-1.404 0.548,-2.465l0,-36.025c-1.877,0.664 -3.897,1.025 -6,1.025c-5.476,0 -10.384,-2.45 -13.686,-6.313c3.145,2.689 7.227,4.313 11.686,4.313c2.873,0 5.589,-0.674 8,-1.873Zm-2.065,38.403c0.043,0.139 0.065,0.286 0.065,0.435c-0,0.398 -0.158,0.779 -0.439,1.061c-0.282,0.281 -0.663,0.439 -1.061,0.439c-2.101,-0 -5.899,-0 -8,-0c-0.149,0 -0.296,-0.022 -0.435,-0.065c0.071,0.234 0.198,0.45 0.374,0.626c0.282,0.281 0.663,0.439 1.061,0.439c2.101,-0 5.899,-0 8,-0c0.398,0 0.779,-0.158 1.061,-0.439c0.281,-0.282 0.439,-0.663 0.439,-1.061c-0,-0.398 -0.158,-0.779 -0.439,-1.061c-0.176,-0.176 -0.392,-0.303 -0.626,-0.374Zm-91.478,-2.604c-0.841,-0.237 -1.457,-1.009 -1.457,-1.926c-0,-7.808 -0,-36.191 -0,-44c0,-1.104 0.895,-2 2,-2l90,0c-0,-1.104 -0.895,-2 -2,-2c-12.311,0 -76.689,0 -89,0c-1.411,0 -3,1.554 -3,2.965c-0,7.808 -0,36.025 0,43.834c0,1.56 2.019,2.986 3.457,3.127l-0,-0Z" style="fill:#424243;"/><path d="M107,40.535c-0,-1.104 -0.895,-2 -2,-2c-12.311,0 -77.689,0 -90,0c-1.105,0 -2,0.896 -2,2c-0,7.809 -0,36.192 0,44c0,1.105 0.895,2 2,2c12.311,0 77.689,0 90,0c1.105,0 2,-0.895 2,-2c-0,-7.808 -0,-36.191 0,-44Z" style="fill:#f6f8f9;"/><path d="M15,86.535l-0,-44c0,-1.104 0.895,-2 2,-2l90,0c-0,-1.104 -0.895,-2 -2,-2c-12.311,0 -77.689,0 -90,0c-1.105,0 -2,0.896 -2,2c-0,7.809 -0,36.192 0,44c0,1.105 0.895,2 2,2l0,0Zm92,-32.704c-1.587,0.458 -3.265,0.704 -5,0.704c-5.476,0 -10.384,-2.45 -13.686,-6.313c3.145,2.689 7.227,4.313 11.686,4.313c2.482,0 4.848,-0.503 7,-1.414l0,2.71Z" style="fill:#eeefef;"/><path d="M106,89.5c-0,-0.398 -0.158,-0.779 -0.439,-1.061c-0.282,-0.281 -0.663,-0.439 -1.061,-0.439c-2.101,-0 -5.899,-0 -8,-0c-0.398,-0 -0.779,0.158 -1.061,0.439c-0.281,0.282 -0.439,0.663 -0.439,1.061c0,0.398 0.158,0.779 0.439,1.061c0.282,0.281 0.663,0.439 1.061,0.439c2.101,-0 5.899,-0 8,-0c0.398,0 0.779,-0.158 1.061,-0.439c0.281,-0.282 0.439,-0.663 0.439,-1.061Z" style="fill:#83d3f6;"/><path d="M104.935,88.065c0.043,0.139 0.065,0.286 0.065,0.435c-0,0.398 -0.158,0.779 -0.439,1.061c-0.282,0.281 -0.663,0.439 -1.061,0.439c-2.101,-0 -5.899,-0 -8,-0c-0.149,0 -0.296,-0.022 -0.435,-0.065c0.071,0.234 0.198,0.45 0.374,0.626c0.282,0.281 0.663,0.439 1.061,0.439c2.101,-0 5.899,-0 8,-0c0.398,0 0.779,-0.158 1.061,-0.439c0.281,-0.282 0.439,-0.663 0.439,-1.061c-0,-0.398 -0.158,-0.779 -0.439,-1.061c-0.176,-0.176 -0.392,-0.303 -0.626,-0.374Z" style="fill:#56c2ef;"/><path d="M99.939,43.475l-36,36c-0.585,0.585 -0.585,1.536 0,2.121c0.586,0.585 1.536,0.585 2.122,0l36,-36c0.585,-0.585 0.585,-1.536 -0,-2.121c-0.586,-0.586 -1.536,-0.586 -2.122,-0Zm-19,-0l-36,36c-0.585,0.585 -0.585,1.536 0,2.121c0.586,0.585 1.536,0.585 2.122,0l36,-36c0.585,-0.585 0.585,-1.536 -0,-2.121c-0.586,-0.586 -1.536,-0.586 -2.122,-0Zm-19,-0l-36,36c-0.585,0.585 -0.585,1.536 0,2.121c0.586,0.585 1.536,0.585 2.122,0l36,-36c0.585,-0.585 0.585,-1.536 -0,-2.121c-0.586,-0.586 -1.536,-0.586 -2.122,-0Zm38,19l-17,17c-0.585,0.585 -0.585,1.536 0,2.121c0.586,0.585 1.536,0.585 2.122,0l17,-17c0.585,-0.585 0.585,-1.536 -0,-2.121c-0.586,-0.586 -1.536,-0.586 -2.122,-0Zm-57,-19l-25,25c-0.585,0.585 -0.585,1.536 0,2.121c0.586,0.585 1.536,0.585 2.122,0l25,-25c0.585,-0.585 0.585,-1.536 -0,-2.121c-0.586,-0.586 -1.536,-0.586 -2.122,-0Zm-19,-0l-6,6c-0.585,0.585 -0.585,1.536 0,2.121c0.586,0.585 1.536,0.585 2.122,0l6,-6c0.585,-0.585 0.585,-1.536 -0,-2.121c-0.586,-0.586 -1.536,-0.586 -2.122,-0Z" style="fill:#fbef57;"/><path d="M94.109,51.548l6.952,-6.952c0.404,-0.405 0.529,-0.984 0.374,-1.496c0.229,0.069 0.445,0.194 0.626,0.375c0.585,0.585 0.585,1.536 -0,2.121l-36,36c-0.586,0.585 -1.536,0.585 -2.122,0c-0.18,-0.181 -0.305,-0.396 -0.374,-0.625c0.512,0.155 1.091,0.03 1.496,-0.375l28.279,-28.28c-0.477,-0.263 -0.942,-0.546 -1.392,-0.85l0.561,-0.561c0.521,0.239 1.054,0.453 1.6,0.643Zm-11.674,-8.448c0.155,0.512 0.03,1.091 -0.374,1.496l-36,36c-0.405,0.405 -0.984,0.53 -1.496,0.375c0.069,0.229 0.194,0.444 0.374,0.625c0.586,0.585 1.536,0.585 2.122,0l36,-36c0.585,-0.585 0.585,-1.536 -0,-2.121c-0.181,-0.181 -0.397,-0.306 -0.626,-0.375Zm-19,-0c0.155,0.512 0.03,1.091 -0.374,1.496l-36,36c-0.405,0.405 -0.984,0.53 -1.496,0.375c0.069,0.229 0.194,0.444 0.374,0.625c0.586,0.585 1.536,0.585 2.122,0l36,-36c0.585,-0.585 0.585,-1.536 -0,-2.121c-0.181,-0.181 -0.397,-0.306 -0.626,-0.375Zm38,19c0.155,0.512 0.03,1.091 -0.374,1.496l-17,17c-0.405,0.405 -0.984,0.53 -1.496,0.375c0.069,0.229 0.194,0.444 0.374,0.625c0.586,0.585 1.536,0.585 2.122,0l17,-17c0.585,-0.585 0.585,-1.536 -0,-2.121c-0.181,-0.181 -0.397,-0.306 -0.626,-0.375Zm-57,-19c0.155,0.512 0.03,1.091 -0.374,1.496l-25,25c-0.405,0.405 -0.984,0.53 -1.496,0.375c0.069,0.229 0.194,0.444 0.374,0.625c0.586,0.585 1.536,0.585 2.122,0l25,-25c0.585,-0.585 0.585,-1.536 -0,-2.121c-0.181,-0.181 -0.397,-0.306 -0.626,-0.375Zm-19,-0c0.155,0.512 0.03,1.091 -0.374,1.496l-6,6c-0.405,0.405 -0.984,0.53 -1.496,0.375c0.069,0.229 0.194,0.444 0.374,0.625c0.586,0.585 1.536,0.585 2.122,0l6,-6c0.585,-0.585 0.585,-1.536 -0,-2.121c-0.181,-0.181 -0.397,-0.306 -0.626,-0.375Z" style="fill:#fcd935;"/><circle cx="100" cy="34.535" r="18" style="fill:#41b3e6;"/><path d="M111.686,20.849c3.864,3.302 6.314,8.21 6.314,13.686c0,9.935 -8.066,18 -18,18c-5.476,0 -10.384,-2.45 -13.686,-6.313c3.145,2.689 7.227,4.313 11.686,4.313c9.934,0 18,-8.065 18,-18c0,-4.458 -1.625,-8.54 -4.314,-11.686Zm-9.736,20.37c0.14,0.287 0.219,0.609 0.219,0.95c-0,1.197 -0.972,2.169 -2.169,2.169c-0.341,-0 -0.663,-0.079 -0.95,-0.219c0.352,0.721 1.094,1.219 1.95,1.219c1.197,-0 2.169,-0.972 2.169,-2.169c-0,-0.856 -0.497,-1.598 -1.219,-1.95Zm4.893,-5.732c0.097,0.113 0.191,0.229 0.282,0.347c0.675,0.873 0.514,2.13 -0.36,2.805c-0.673,0.52 -1.574,0.544 -2.261,0.128c0.164,0.16 0.316,0.331 0.456,0.512c0.675,0.874 1.932,1.035 2.805,0.36c0.874,-0.675 1.035,-1.932 0.36,-2.805c-0.38,-0.492 -0.81,-0.943 -1.282,-1.347Zm-13.208,3.393c0.13,0.289 0.331,0.552 0.6,0.759c0.873,0.675 2.13,0.514 2.805,-0.36c0.915,-1.184 2.349,-1.948 3.96,-1.948c1.128,-0 2.168,0.374 3.005,1.005c-0.015,-0.018 -0.03,-0.037 -0.045,-0.057c-0.915,-1.184 -2.349,-1.948 -3.96,-1.948c-1.611,-0 -3.045,0.764 -3.96,1.948c-0.577,0.748 -1.58,0.974 -2.405,0.601Zm16.75,-9.935c0.384,0.425 0.743,0.874 1.073,1.344c0.635,0.902 0.418,2.151 -0.485,2.786c-0.627,0.441 -1.42,0.471 -2.059,0.146c0.094,0.121 0.185,0.244 0.272,0.369c0.635,0.902 1.884,1.12 2.787,0.485c0.903,-0.635 1.12,-1.884 0.485,-2.786c-0.602,-0.857 -1.298,-1.643 -2.073,-2.344Zm-21.03,4.317c0.142,0.316 0.368,0.599 0.672,0.813c0.903,0.635 2.152,0.417 2.787,-0.485c1.81,-2.575 4.803,-4.259 8.186,-4.259c2.506,-0 4.797,0.924 6.552,2.449c-1.834,-2.112 -4.538,-3.449 -7.552,-3.449c-3.383,-0 -6.376,1.684 -8.186,4.259c-0.561,0.797 -1.601,1.06 -2.459,0.672Z" style="fill:#2898d4;"/><path d="M100,40c-1.197,0 -2.169,0.972 -2.169,2.169c0,1.197 0.972,2.169 2.169,2.169c1.197,-0 2.169,-0.972 2.169,-2.169c-0,-1.197 -0.972,-2.169 -2.169,-2.169Zm-3.96,-1.721c0.915,-1.184 2.349,-1.948 3.96,-1.948c1.611,-0 3.045,0.764 3.96,1.948c0.675,0.874 1.932,1.035 2.805,0.36c0.874,-0.675 1.035,-1.932 0.36,-2.805c-1.646,-2.131 -4.227,-3.503 -7.125,-3.503c-2.898,-0 -5.479,1.372 -7.125,3.503c-0.675,0.873 -0.514,2.13 0.36,2.805c0.873,0.675 2.13,0.514 2.805,-0.36Zm-4.226,-5.689c1.81,-2.575 4.803,-4.259 8.186,-4.259c3.383,-0 6.376,1.684 8.186,4.259c0.635,0.902 1.884,1.12 2.787,0.485c0.903,-0.635 1.12,-1.884 0.485,-2.786c-2.533,-3.603 -6.723,-5.958 -11.458,-5.958c-4.735,-0 -8.925,2.355 -11.458,5.958c-0.635,0.902 -0.418,2.151 0.485,2.786c0.903,0.635 2.152,0.417 2.787,-0.485Z" style="fill:#fff;"/><path d="M100.95,40.219c0.14,0.287 0.219,0.609 0.219,0.95c-0,1.197 -0.972,2.169 -2.169,2.169c-0.341,-0 -0.663,-0.079 -0.95,-0.219c0.352,0.721 1.094,1.219 1.95,1.219c1.197,-0 2.169,-0.972 2.169,-2.169c-0,-0.856 -0.497,-1.598 -1.219,-1.95Zm4.893,-5.732c0.097,0.113 0.191,0.229 0.282,0.347c0.675,0.873 0.514,2.13 -0.36,2.805c-0.673,0.52 -1.574,0.544 -2.261,0.128c0.164,0.16 0.316,0.331 0.456,0.512c0.675,0.874 1.932,1.035 2.805,0.36c0.874,-0.675 1.035,-1.932 0.36,-2.805c-0.38,-0.492 -0.81,-0.943 -1.282,-1.347Zm-13.208,3.393c0.13,0.289 0.331,0.552 0.6,0.759c0.873,0.675 2.13,0.514 2.805,-0.36c0.915,-1.184 2.349,-1.948 3.96,-1.948c1.128,-0 2.168,0.374 3.005,1.005c-0.015,-0.018 -0.03,-0.037 -0.045,-0.057c-0.915,-1.184 -2.349,-1.948 -3.96,-1.948c-1.611,-0 -3.045,0.764 -3.96,1.948c-0.577,0.748 -1.58,0.974 -2.405,0.601Zm16.75,-9.935c0.384,0.425 0.743,0.874 1.073,1.344c0.635,0.902 0.418,2.151 -0.485,2.786c-0.627,0.441 -1.42,0.471 -2.059,0.146c0.094,0.121 0.185,0.244 0.272,0.369c0.635,0.902 1.884,1.12 2.787,0.485c0.903,-0.635 1.12,-1.884 0.485,-2.786c-0.602,-0.857 -1.298,-1.643 -2.073,-2.344Zm-21.03,4.317c0.142,0.316 0.368,0.599 0.672,0.813c0.903,0.635 2.152,0.417 2.787,-0.485c1.81,-2.575 4.803,-4.259 8.186,-4.259c2.506,-0 4.797,0.924 6.552,2.449c-1.834,-2.112 -4.538,-3.449 -7.552,-3.449c-3.383,-0 -6.376,1.684 -8.186,4.259c-0.561,0.797 -1.601,1.06 -2.459,0.672Z" style="fill:#eeefef;"/></svg>